<?xml version="1.0" encoding="UTF-8"?>
<svg version="1.1" xmlns="http://www.w3.org/2000/svg" width="300" height="300">
<path d="M0 0 C11.15612517 -0.4980413 20.62185985 2.83177211 29 10.15234375 C34.8885239 15.84332931 39.45042218 21.76779493 43 29.15234375 C45.03549537 26.61826636 47.05766014 24.07759504 49.04296875 21.50390625 C56.67790055 11.79683449 64.52995637 5.06620333 76.4375 1.40234375 C90.02199509 0.07702716 102.33747995 2.67353076 113.33984375 10.90234375 C123.50607223 19.29244246 128.67710637 30.38752975 130.27734375 43.40917969 C131.03837875 51.47681828 131.18675879 59.12586829 130 67.15234375 C130.81339844 66.83007812 131.62679687 66.5078125 132.46484375 66.17578125 C143.49176317 62.98345762 156.67527239 64.43525122 167 69.15234375 C178.5036384 75.55225525 184.7709598 83.81213661 189 96.15234375 C189.2475 96.85746094 189.495 97.56257813 189.75 98.2890625 C193.28973085 110.80102778 191.98863666 124.74541677 186 136.15234375 C177.94283215 150.39462678 168.16898205 160.19568767 152.11767578 164.67797852 C150.00873848 165.15038631 148.04676088 165.35440946 145.890625 165.46875 C144.75947266 165.5315918 144.75947266 165.5315918 143.60546875 165.59570312 C142.82816406 165.63501953 142.05085937 165.67433594 141.25 165.71484375 C140.45722656 165.75802734 139.66445312 165.80121094 138.84765625 165.84570312 C136.89862185 165.95137366 134.94933252 166.05232341 133 166.15234375 C133.32613281 166.62542969 133.65226563 167.09851563 133.98828125 167.5859375 C141.88075056 179.52940876 143.59981047 193.21126703 141.5390625 207.3046875 C138.76130344 219.73924422 133.22704544 230.32780064 123 238.15234375 C115.54273958 242.82698626 106.89191829 247.49523658 98 248.15234375 C96.24429688 248.28962891 96.24429688 248.28962891 94.453125 248.4296875 C83.8825226 248.95328885 74.30167627 246.9386358 64.09375 244.34375 C45.7393069 239.81804412 26.26286564 242.05882245 7.69873047 244.08496094 C-7.39618464 245.71297663 -21.28697698 246.48977104 -33.83203125 236.7265625 C-42.87012714 228.50454751 -51.12188628 214.48986183 -52.17700195 202.06860352 C-52.5271184 189.35700516 -52.02569596 178.66088018 -46 167.15234375 C-47.06476562 167.13816406 -48.12953125 167.12398437 -49.2265625 167.109375 C-64.70408443 166.68980362 -76.85054746 163.23414784 -88.11328125 152.0546875 C-97.84829158 141.65967647 -104.06541494 129.66145056 -104.4375 115.21484375 C-103.95246313 100.67990544 -100.31016381 87.89517248 -90.23046875 77.19140625 C-80.8423307 68.60890527 -70.64516392 65.9223917 -58.25 65.83984375 C-57.02518921 65.83138428 -57.02518921 65.83138428 -55.77563477 65.82275391 C-51.13676156 65.87878697 -47.3613584 66.38669704 -43 68.15234375 C-43.15984375 67.49105469 -43.3196875 66.82976562 -43.484375 66.1484375 C-46.10612718 50.91446841 -43.92031779 32.50970133 -35.24609375 19.52734375 C-27.43773215 9.25881342 -18.01078113 3.1377701 -5.3125 0.33984375 C-3.54088288 0.23956354 -1.76932744 0.13477299 0 0 Z M42 86.15234375 C40.18759253 88.16842542 40.18759253 88.16842542 38.375 90.65234375 C37.74335938 91.48765625 37.11171875 92.32296875 36.4609375 93.18359375 C35.73777344 94.158125 35.73777344 94.158125 35 95.15234375 C38.42689636 96.29464254 40.61102218 96.06095451 44.1875 95.71484375 C45.27417969 95.61300781 46.36085937 95.51117188 47.48046875 95.40625 C48.31191406 95.32246094 49.14335937 95.23867187 50 95.15234375 C49.05016642 93.64694714 48.08988109 92.14814028 47.125 90.65234375 C46.32449219 89.399375 46.32449219 89.399375 45.5078125 88.12109375 C45.01023438 87.47140625 44.51265625 86.82171875 44 86.15234375 C43.34 86.15234375 42.68 86.15234375 42 86.15234375 Z M-13 106.15234375 C-12.83628906 106.95929688 -12.67257813 107.76625 -12.50390625 108.59765625 C-11.91102007 112.78003163 -11.89105748 116.81179193 -11.9375 121.02734375 C-11.94201172 121.81109375 -11.94652344 122.59484375 -11.95117188 123.40234375 C-11.96285907 125.31904389 -11.98079092 127.23570423 -12 129.15234375 C-7.61669593 125.40827152 -3.26302634 121.63431233 1.06640625 117.828125 C2.85366295 116.2791692 4.66813471 114.77300788 6.5 113.27734375 C7.325 112.57609375 8.15 111.87484375 9 111.15234375 C9 110.82234375 9 110.49234375 9 110.15234375 C7.99839844 110.03117187 6.99679688 109.91 5.96484375 109.78515625 C4.6223597 109.61617224 3.27991377 109.44688517 1.9375 109.27734375 C1.28072266 109.19871094 0.62394531 109.12007813 -0.05273438 109.0390625 C-4.5335192 108.46516888 -8.68351175 107.48826599 -13 106.15234375 Z M89.875 109.15234375 C89.21628906 109.343125 88.55757812 109.53390625 87.87890625 109.73046875 C86.25191621 110.20206007 84.62586682 110.67689444 83 111.15234375 C83.804375 112.08046875 84.60875 113.00859375 85.4375 113.96484375 C89.10433608 118.22819861 92.62257879 122.60892003 96.14453125 126.9921875 C96.75683594 127.70503906 97.36914062 128.41789062 98 129.15234375 C98.33 129.15234375 98.66 129.15234375 99 129.15234375 C99 121.89234375 99 114.63234375 99 107.15234375 C95.82950829 107.15234375 92.8962176 108.2669176 89.875 109.15234375 Z " fill="#31191A" transform="translate(106,28.84765625)"/>
<path d="M0 0 C7.66949626 5.13912231 14.54617895 11.43544424 20.51953125 18.46484375 C23.60577407 22.04378772 26.91091414 25.35303541 30.30859375 28.6328125 C31.1035878 29.40532097 31.1035878 29.40532097 31.91464233 30.19343567 C34.11388415 32.33027206 36.31280652 34.46662214 38.53735352 36.57714844 C46.65777708 44.30037085 52.39816449 51.81923876 57.4375 61.875 C57.82397705 62.59977539 58.2104541 63.32455078 58.60864258 64.07128906 C62.63935926 72.84269845 61.52617807 85.94736487 58.375 94.75 C53.63969369 105.65596044 46.44342161 113.35111383 35.4375 117.875 C27.01427503 120.58164501 19.12007293 121.31717569 10.3125 121.1875 C9.21035156 121.19072266 8.10820312 121.19394531 6.97265625 121.19726562 C2.07002741 121.16527932 -2.52889493 120.99899564 -7.30859375 119.87109375 C-13.880033 118.39450725 -20.54067932 118.57644288 -27.23901367 118.61425781 C-29.49229949 118.62496341 -31.74478542 118.61431912 -33.99804688 118.6015625 C-41.20635065 118.59531132 -48.07843062 118.9195438 -55.15942383 120.41210938 C-68.46553306 122.97518802 -82.55772947 121.09190649 -93.9375 113.625 C-102.2751673 107.23323885 -107.80633983 100.16466464 -110.5625 89.875 C-112.59263582 72.39649729 -105.66091796 62.21234198 -95.5625 48.875 C-94.84320313 47.91980469 -94.12390625 46.96460938 -93.3828125 45.98046875 C-85.06185253 35.29442265 -75.49803291 25.68880591 -66 16.0625 C-65.12577393 15.16684326 -64.25154785 14.27118652 -63.35083008 13.34838867 C-44.39897884 -5.69938533 -24.54856004 -14.65849269 0 0 Z " fill="#FDE7CA" transform="translate(174.5625,142.125)"/>
<path d="M0 0 C1.98828125 1.484375 1.98828125 1.484375 3.5703125 3.65625 C4.03824219 4.25953125 4.50617188 4.8628125 4.98828125 5.484375 C8.18553607 5.82850522 8.18553607 5.82850522 10.42578125 3.171875 C11.27140625 2.285 12.11703125 1.398125 12.98828125 0.484375 C19.42486932 -4.81634458 27.04779566 -4.23530647 34.98828125 -3.515625 C38.69910511 -2.32166623 41.75532114 -0.67302834 44.98828125 1.484375 C46.34953125 2.3196875 46.34953125 2.3196875 47.73828125 3.171875 C55.08750869 10.72524764 57.36096596 18.49111401 57.265625 28.77734375 C55.9934877 45.78098176 42.22806454 59.36419262 30.0546875 70.0625 C28.28935996 71.4870604 26.50969827 72.8940763 24.71484375 74.28125 C22.65643883 75.94448836 20.77967878 77.60197344 18.88671875 79.4375 C18.36158691 79.94313477 17.83645508 80.44876953 17.29541016 80.96972656 C15.82337007 82.40160751 14.36627245 83.84880364 12.91015625 85.296875 C9.31556329 87.98801412 7.4891256 88.75744898 2.98828125 88.484375 C0.11369937 86.70126106 -2.11015624 84.41047099 -4.44921875 81.984375 C-5.77916788 80.6710846 -7.10988758 79.35857405 -8.44140625 78.046875 C-9.0662793 77.41910156 -9.69115234 76.79132813 -10.33496094 76.14453125 C-12.17254632 74.32513978 -14.08588496 72.63701607 -16.07421875 70.984375 C-42.18799904 48.30661843 -42.18799904 48.30661843 -44.31274414 33.36791992 C-44.44878067 31.08636432 -44.47043251 28.83217519 -44.44921875 26.546875 C-44.47918945 25.40702148 -44.47918945 25.40702148 -44.50976562 24.24414062 C-44.50374979 17.19959263 -42.28734444 12.24036533 -37.828125 6.83984375 C-37.08433594 6.12441406 -36.34054688 5.40898437 -35.57421875 4.671875 C-34.83300781 3.94355469 -34.09179688 3.21523437 -33.328125 2.46484375 C-23.80431725 -5.67777097 -10.85912182 -5.91320247 0 0 Z " fill="#FC8C95" transform="translate(144.01171875,168.515625)"/>
<path d="M0 0 C7.72630458 6.28789681 13.24663158 13.91992323 15.203125 23.79296875 C16.40471239 38.36960272 13.34128494 53.47269885 5.203125 65.79296875 C0.28793114 71.53442364 -5.94877669 74.81019183 -12.796875 77.79296875 C-13.92609375 78.34404297 -13.92609375 78.34404297 -15.078125 78.90625 C-21.82616225 81.10711847 -32.61854444 81.33667635 -39.234375 78.35546875 C-40.96484375 77.24609375 -40.96484375 77.24609375 -42.796875 75.79296875 C-43.63863281 75.1484375 -44.48039063 74.50390625 -45.34765625 73.83984375 C-55.04349644 65.81376475 -57.24592967 57.95456256 -58.796875 45.79296875 C-59.12024497 41.45513507 -59.21113315 37.14177736 -59.234375 32.79296875 C-59.26724609 31.70757812 -59.30011719 30.6221875 -59.33398438 29.50390625 C-59.40295043 18.99598799 -56.30112844 9.29126148 -48.9609375 1.546875 C-34.55760053 -10.12658764 -14.96089538 -10.59294166 0 0 Z " fill="#FDE7CD" transform="translate(213.796875,48.20703125)"/>
<path d="M0 0 C11.07117334 6.08699699 17.69063307 15.41881672 21.34765625 27.42578125 C24.06169743 42.29612661 23.03980051 59.25296561 14.60546875 72.12890625 C9.61391053 78.52927409 2.99608358 83.01799048 -5.11083984 84.34570312 C-17.01748426 85.57858604 -25.88501733 83.24823309 -35.60546875 76.078125 C-42.88844956 69.75749565 -46.86073896 60.93953631 -50 52 C-50.37125 50.94619141 -50.37125 50.94619141 -50.75 49.87109375 C-53.82945034 38.94332205 -53.5019611 25.7099716 -48.4765625 15.546875 C-37.73429841 -2.98210963 -19.74790415 -8.57442825 0 0 Z " fill="#FDE8CD" transform="translate(125,44)"/>
<path d="M0 0 C8.22010358 6.65595431 12.40812084 14.997508 13.8125 25.375 C15.04810085 38.18915261 12.88020386 49.47686118 5 59.875 C-1.94485629 67.79343427 -9.90386385 73.38333123 -20.515625 74.828125 C-30.30924148 75.30270553 -37.78383494 72.86013972 -45.34765625 66.58203125 C-50.20214913 61.58324346 -52.18570596 55.93643602 -54.1875 49.375 C-54.4865625 48.60671875 -54.785625 47.8384375 -55.09375 47.046875 C-58.59705564 37.51009853 -59.22518148 26.01145147 -55.08422852 16.59838867 C-49.88906361 6.25190589 -42.98597964 -0.47044475 -32.1875 -4.625 C-20.37907662 -8.42198462 -10.30295656 -7.00123689 0 0 Z " fill="#FDE7CD" transform="translate(272.1875,109.625)"/>
<path d="M0 0 C9.20217135 5.22186707 16.41319676 13.35782692 19.8125 23.4375 C22.45920358 37.33269378 22.57001556 52.87380942 15.125 65.1875 C10.02680761 72.29483225 3.4126509 76.73422336 -5.1875 78.4375 C-15.04033811 79.77297505 -23.0702137 77.01351645 -31.14453125 71.37109375 C-40.10282901 63.9323978 -46.75653366 53.18334874 -48.1875 41.4375 C-48.3421875 40.23222656 -48.496875 39.02695313 -48.65625 37.78515625 C-49.78642794 27.22926906 -48.49694548 19.10275085 -42.5625 10.125 C-38.95135202 5.65011688 -34.28283217 2.97305357 -29.1875 0.4375 C-28.45144531 0.06109375 -27.71539062 -0.3153125 -26.95703125 -0.703125 C-19.17879276 -3.11668278 -7.55876646 -3.0952418 0 0 Z " fill="#FDE7CD" transform="translate(63.1875,106.5625)"/>
<path d="M0 0 C1.98828125 1.484375 1.98828125 1.484375 3.5703125 3.65625 C4.03824219 4.25953125 4.50617188 4.8628125 4.98828125 5.484375 C8.18553607 5.82850522 8.18553607 5.82850522 10.42578125 3.171875 C11.27140625 2.285 12.11703125 1.398125 12.98828125 0.484375 C19.42486932 -4.81634458 27.04779566 -4.23530647 34.98828125 -3.515625 C38.69910511 -2.32166623 41.75532114 -0.67302834 44.98828125 1.484375 C46.34953125 2.3196875 46.34953125 2.3196875 47.73828125 3.171875 C55.08750869 10.72524764 57.36096596 18.49111401 57.265625 28.77734375 C55.9934877 45.78098176 42.22806454 59.36419262 30.0546875 70.0625 C28.28935996 71.4870604 26.50969827 72.8940763 24.71484375 74.28125 C22.65643883 75.94448836 20.77967878 77.60197344 18.88671875 79.4375 C18.36158691 79.94313477 17.83645508 80.44876953 17.29541016 80.96972656 C15.82337007 82.40160751 14.36627245 83.84880364 12.91015625 85.296875 C9.31556329 87.98801412 7.4891256 88.75744898 2.98828125 88.484375 C0.11369937 86.70126106 -2.11015624 84.41047099 -4.44921875 81.984375 C-5.77916788 80.6710846 -7.10988758 79.35857405 -8.44140625 78.046875 C-9.0662793 77.41910156 -9.69115234 76.79132813 -10.33496094 76.14453125 C-12.17254632 74.32513978 -14.08588496 72.63701607 -16.07421875 70.984375 C-42.18799904 48.30661843 -42.18799904 48.30661843 -44.31274414 33.36791992 C-44.44878067 31.08636432 -44.47043251 28.83217519 -44.44921875 26.546875 C-44.47918945 25.40702148 -44.47918945 25.40702148 -44.50976562 24.24414062 C-44.50374979 17.19959263 -42.28734444 12.24036533 -37.828125 6.83984375 C-37.08433594 6.12441406 -36.34054688 5.40898437 -35.57421875 4.671875 C-34.83300781 3.94355469 -34.09179688 3.21523437 -33.328125 2.46484375 C-23.80431725 -5.67777097 -10.85912182 -5.91320247 0 0 Z M-34.01171875 17.484375 C-36.11651746 23.79877114 -35.97080248 31.07975233 -33.38671875 37.234375 C-29.09022323 45.30108653 -23.11327155 51.6798013 -16.63671875 58.046875 C-15.92 58.76294922 -15.20328125 59.47902344 -14.46484375 60.21679688 C-10.33396403 64.31412252 -6.1015555 68.23263977 -1.67211914 72.00561523 C-0.01171875 73.484375 -0.01171875 73.484375 2.17578125 75.984375 C3.88128742 77.73057597 3.88128742 77.73057597 6.20703125 77.42578125 C10.03337402 76.13062871 12.46522753 73.68389734 15.30078125 70.921875 C16.16062622 70.10650269 16.16062622 70.10650269 17.0378418 69.2746582 C20.81461011 65.67679785 24.51034463 61.99992583 28.16015625 58.2734375 C30.04882091 56.42512892 32.02367423 54.74128888 34.05078125 53.046875 C40.83936561 47.18036213 47.19346267 39.85185422 48.3359375 30.69921875 C48.74632239 22.37577142 46.84355487 17.19023908 41.625 10.8203125 C36.82551041 6.38047458 30.80920398 6.77919431 24.58984375 7 C16.72471892 8.05778251 12.20747214 12.87374479 6.98828125 18.484375 C4.29700996 17.38793114 2.79063431 16.28123787 0.73828125 14.171875 C-4.21459778 9.3315614 -8.40816068 6.20373031 -15.51171875 5.859375 C-23.97903801 6.2815682 -29.23270216 10.82271552 -34.01171875 17.484375 Z " fill="#311E1E" transform="translate(144.01171875,168.515625)"/>
<path d="M0 0 C1.98 1.98 1.98 1.98 4 4 C4.66 3.67 5.32 3.34 6 3 C8.13900366 16.71066278 7.98163461 28.6937211 0.28515625 40.66796875 C-7.5922094 51.23432573 -17.25373708 55.62493733 -30 58 C-34.38635408 58.36747951 -38.72591803 58.37726858 -43.125 58.3125 C-44.22714844 58.31572266 -45.32929688 58.31894531 -46.46484375 58.32226562 C-51.36747259 58.29027932 -55.96639493 58.12399564 -60.74609375 56.99609375 C-67.317533 55.51950725 -73.97817932 55.70144288 -80.67651367 55.73925781 C-82.92979949 55.74996341 -85.18228542 55.73931912 -87.43554688 55.7265625 C-94.64385065 55.72031132 -101.51593062 56.0445438 -108.59692383 57.53710938 C-121.90303306 60.10018802 -135.99522947 58.21690649 -147.375 50.75 C-156.43729927 43.78803914 -160.41122156 36.84902607 -164 26 C-163.34 26 -162.68 26 -162 26 C-161.690625 25.21625 -161.38125 24.4325 -161.0625 23.625 C-160 21 -160 21 -159 19 C-158.34 19 -157.68 19 -157 19 C-156.81566406 19.556875 -156.63132812 20.11375 -156.44140625 20.6875 C-153.04211143 29.63142237 -146.98944426 34.81282648 -138.4375 38.875 C-127.23635721 43.48267231 -117.55581805 44.24955276 -105.73046875 41.20727539 C-95.11237146 38.51503317 -95.11237146 38.51503317 -91.4375 40.1171875 C-89.65616329 41.97009577 -88.35207652 43.81909638 -87 46 C-84.1261251 49.16202067 -81.97209154 50.92930243 -77.5625 51.25 C-73.51886511 49.83118074 -71.72734077 48.16519905 -68.96875 44.984375 C-62.15369279 38.11523004 -62.15369279 38.11523004 -57.81884766 37.88330078 C-55.35669136 38.18607174 -52.98430296 38.6507799 -50.5625 39.1875 C-48.78806059 39.51530545 -47.01195703 39.83421885 -45.234375 40.14453125 C-43.91469727 40.3758374 -43.91469727 40.3758374 -42.56835938 40.61181641 C-32.20266658 42.17849431 -21.09877142 42.47182643 -12.37890625 36.078125 C-5.94685509 30.6636262 -1.72151955 25.38041776 0 17 C0.07708723 15.63199181 0.10803609 14.26076408 0.09765625 12.890625 C0.09443359 12.13652344 0.09121094 11.38242188 0.08789062 10.60546875 C0.07951172 9.82816406 0.07113281 9.05085937 0.0625 8.25 C0.05573242 7.06083984 0.05573242 7.06083984 0.04882812 5.84765625 C0.03708565 3.89840492 0.01915146 1.94919262 0 0 Z " fill="#D4997F" transform="translate(228,205)"/>
<path d="M0 0 C6.26665633 2.83635896 9.79488432 7.54708034 13.58203125 13.1015625 C16.1571825 20.54088835 15.28140236 27.92303486 12.12109375 35.05078125 C9.39264622 39.49016135 5.36729515 43.02143055 0.70703125 45.3515625 C-5.62080879 46.05963525 -11.53929148 46.58336144 -16.85546875 42.6640625 C-21.59861858 38.40022044 -24.62296163 34.57944932 -26.29296875 28.3515625 C-26.40127691 25.64663565 -26.40940711 23.15809975 -26.23046875 20.4765625 C-26.16037598 19.41646973 -26.16037598 19.41646973 -26.08886719 18.33496094 C-25.41775788 10.87704362 -23.02347445 6.82806767 -17.60546875 1.9140625 C-12.31252678 -1.66224964 -6.12518549 -1.73216489 0 0 Z " fill="#FD8D96" transform="translate(117.29296875,59.6484375)"/>
<path d="M0 0 C4.85503811 2.57956668 8.08027514 6.08848167 9.80859375 11.2734375 C10.8273463 21.68018822 9.9342058 29.46090925 3.80859375 38.2734375 C0.15950595 42.43232433 -3.34291283 44.01096303 -8.77734375 44.51171875 C-14.81276519 44.6723252 -18.51909223 44.50076923 -23.19140625 40.2734375 C-28.4653112 34.6312431 -30.87670739 30.25518327 -31.41796875 22.546875 C-31.02726898 16.90193688 -28.36434896 12.83362028 -25.19140625 8.2734375 C-24.76085937 7.64179687 -24.3303125 7.01015625 -23.88671875 6.359375 C-18.15976233 -1.2391358 -8.87776 -2.94342845 0 0 Z " fill="#FD8D96" transform="translate(200.19140625,60.7265625)"/>
<path d="M0 0 C7.66949626 5.13912231 14.54617895 11.43544424 20.51953125 18.46484375 C23.60577407 22.04378772 26.91091414 25.35303541 30.30859375 28.6328125 C31.1035878 29.40532097 31.1035878 29.40532097 31.91464233 30.19343567 C34.11388415 32.33027206 36.31280652 34.46662214 38.53735352 36.57714844 C47.58260444 45.17996135 56.9581059 54.89695713 58.4375 67.875 C55.35743854 65.0038705 53.18007346 62.09485555 51 58.5 C46.91572121 51.77183772 42.49314488 46.67865419 36.125 42.0625 C27.90961122 35.86768548 21.18814351 28.42859698 14.26367188 20.86083984 C7.65112354 13.67013554 1.09138075 6.62171817 -7.5625 1.875 C-8.1709375 1.53726563 -8.779375 1.19953125 -9.40625 0.8515625 C-17.74779222 -3.00109895 -28.7081941 -2.21988499 -37.2109375 0.78515625 C-49.35475773 6.41327227 -60.25963018 17.00483066 -67.453125 28.171875 C-69.82452524 31.21078049 -72.45036352 33.49729567 -75.37744141 35.98730469 C-94.68600731 52.61422572 -94.68600731 52.61422572 -103.03125 75.703125 C-103.85330967 80.61130478 -106.05022885 84.62715221 -108.5625 88.875 C-109.2225 88.875 -109.8825 88.875 -110.5625 88.875 C-111.30154373 71.41167029 -105.82717566 62.43192448 -95.5625 48.875 C-94.84320313 47.91980469 -94.12390625 46.96460938 -93.3828125 45.98046875 C-85.06185253 35.29442265 -75.49803291 25.68880591 -66 16.0625 C-65.12577393 15.16684326 -64.25154785 14.27118652 -63.35083008 13.34838867 C-44.39897884 -5.69938533 -24.54856004 -14.65849269 0 0 Z " fill="#F9F8F7" transform="translate(174.5625,142.125)"/>
<path d="M0 0 C3.78631202 2.15131365 5.96249573 4.7054798 7.48828125 8.82421875 C9.31553492 16.59353399 8.66296874 23.85877978 4.66796875 30.796875 C1.08962374 35.52330728 -2.92623811 38.45431134 -8.81640625 39.5 C-14.68325678 39.75542751 -18.52216454 39.05137494 -23 35 C-28.94062706 28.65469807 -28.94062706 28.65469807 -29.08984375 24.49609375 C-28.72301894 17.13138023 -27.64710226 11.13682194 -22 6 C-19.44649113 4.83746002 -17.05793738 4.15142432 -14.3203125 3.55078125 C-11.82201195 3.08920721 -11.82201195 3.08920721 -9.3125 1.3125 C-6.01520498 -0.55893772 -3.72772224 -0.46596528 0 0 Z " fill="#FD8D96" transform="translate(259,128)"/>
<path d="M0 0 C6.65088767 0.09701457 11.22124726 4.47422101 16.0625 8.625 C16.65417969 9.07875 17.24585938 9.5325 17.85546875 10 C20.75512515 13.90374453 19.54532214 20.04090217 19.0625 24.625 C16.99944995 31.95640386 12.21090257 35.52606495 6.0625 39.625 C1.04307229 40.56552393 -2.95981225 39.98365034 -7.3125 37.3125 C-13.53731336 33.0473501 -13.53731336 33.0473501 -14.5859375 29.3203125 C-14.70195313 28.43085938 -14.81796875 27.54140625 -14.9375 26.625 C-15.07414062 25.65304688 -15.21078125 24.68109375 -15.3515625 23.6796875 C-15.81436212 16.70341177 -15.06806781 12.91783008 -10.5625 7.4375 C-9.0540056 5.80210052 -7.51784241 4.19107939 -5.9375 2.625 C-3.9375 0.625 -3.9375 0.625 0 0 Z " fill="#FD8D96" transform="translate(49.9375,127.375)"/>
<path d="M0 0 C0.33 0 0.66 0 1 0 C1.62587831 33.07526152 1.62587831 33.07526152 -9.85546875 45.13671875 C-18.18851584 52.37690721 -26.90455893 54.18137675 -37.63671875 53.59375 C-46.60527521 52.67249676 -55.01605849 47.65918583 -60.84375 40.84375 C-67.67446956 31.17763742 -73.78698713 19.19830052 -73 7 C-71.14044711 9.78932934 -69.91050059 12.50970605 -68.64160156 15.59814453 C-63.71252818 27.49432547 -59.03562126 33.54002013 -47 39 C-38.76461479 42.26076739 -28.92708739 42.45912614 -20.5625 39.4375 C-11.14574569 34.97198423 -6.5115354 28.66062867 -2.93359375 19.171875 C-1.94416481 15.81030052 -1.62821699 12.80627291 -1.4375 9.3125 C-1.24565903 5.91808937 -1.07671842 3.23015525 0 0 Z " fill="#D1A187" transform="translate(146,75)"/>
<path d="M0 0 C1.485 0.99 1.485 0.99 3 2 C3.37109375 4.50390625 3.37109375 4.50390625 3.4375 7.5625 C3.89616897 15.07208015 6.05231548 21.75501281 11.1953125 27.45703125 C21.82482237 36.54503212 32.30469795 39.81266966 46.14453125 39.37109375 C52.45804733 38.76340983 56.33135838 36.71683379 60.73046875 32.23828125 C64.72522531 27.3755282 66.94461748 21.90015688 69 16 C69.33 16 69.66 16 70 16 C70.52126813 26.77287468 68.05989604 35.66229473 61 44 C54.64410725 50.14134785 47.46866216 53.02056873 38.6875 53.5 C28.17195664 53.11868323 19.91144828 48.12943844 12.484375 40.94921875 C2.24696002 28.79631261 0.7012829 15.20676614 0 0 Z " fill="#D2A186" transform="translate(14,132)"/>
<path d="M0 0 C0.33 0 0.66 0 1 0 C3.33249882 11.10823695 0.0680285 21.44995881 -5.75 31 C-11.71397678 39.05288235 -20.32621562 44.52683793 -30 47 C-37.45758956 47.97533159 -46.62109029 48.65022089 -53.16796875 44.453125 C-53.77253906 43.97359375 -54.37710938 43.4940625 -55 43 C-55.84175781 42.35546875 -56.68351563 41.7109375 -57.55078125 41.046875 C-65.11726981 34.78344308 -68.69140354 29.19858425 -69.75 19.4375 C-69.84899672 17.95929903 -69.9381953 16.4802225 -70 15 C-68.51969719 16.94776685 -67.07013655 18.89500771 -65.7109375 20.9296875 C-60.43960858 28.60548224 -54.07925198 32.87732685 -45 35 C-36.20217971 35.81007767 -28.62192404 35.6780834 -21 31 C-20.25363281 30.57589844 -19.50726563 30.15179688 -18.73828125 29.71484375 C-10.51670038 24.70372739 -4.54042088 19.10829972 -2.02661133 9.65771484 C-1.2659655 6.450801 -0.6043015 3.24016922 0 0 Z " fill="#D2A187" transform="translate(226,81)"/>
<path d="M0 0 C0.33 0 0.66 0 1 0 C3.52384357 13.570831 2.70586586 26.00930732 -4.83203125 37.88671875 C-11.09865323 46.15569332 -18.79282635 52.46230489 -29 55 C-38.97241469 56.3577466 -46.71039921 54.75221927 -55 49 C-60.9865391 44.03106429 -64.39482807 37.60096119 -66 30 C-65.59375 27.671875 -65.59375 27.671875 -65 26 C-64.61070312 26.58007812 -64.22140625 27.16015625 -63.8203125 27.7578125 C-58.41425019 35.30636955 -51.83350654 40.04666873 -43 43 C-31.23640485 44.52735817 -22.4995235 41.41033125 -13.1875 34.3125 C-5.19340544 26.88661314 -0.98304487 17.36712602 -0.375 6.625 C-0.30023438 5.37976563 -0.22546875 4.13453125 -0.1484375 2.8515625 C-0.07496094 1.44003906 -0.07496094 1.44003906 0 0 Z " fill="#D1A186" transform="translate(284,129)"/>
<path d="M0 0 C7.65781084 6.23215456 13.3774992 13.94512189 15.203125 23.79296875 C15.27144487 26.20875935 15.28800142 28.62631588 15.265625 31.04296875 C15.25660156 32.30625 15.24757813 33.56953125 15.23828125 34.87109375 C15.22667969 35.8353125 15.21507812 36.79953125 15.203125 37.79296875 C14.213125 38.28796875 14.213125 38.28796875 13.203125 38.79296875 C13.11675781 37.99375 13.03039062 37.19453125 12.94140625 36.37109375 C11.45078927 24.71966564 8.40781851 13.69839141 -0.796875 5.79296875 C-10.39126287 -0.70069479 -19.88888717 -1.20313213 -31.2421875 0.06640625 C-39.3396732 1.80392342 -45.80032313 5.79103249 -50.4453125 12.58984375 C-52.69423792 16.25572218 -54.80338461 19.98240304 -56.796875 23.79296875 C-57.126875 23.79296875 -57.456875 23.79296875 -57.796875 23.79296875 C-58.66979015 15.76214938 -54.95075825 9.36880029 -50.234375 3.04296875 C-37.3912366 -11.10795658 -14.59567698 -10.33435171 0 0 Z " fill="#F6F5F4" transform="translate(213.796875,48.20703125)"/>
<path d="M0 0 C3.86534829 3.10172551 7.57213193 6.74846516 9.75 11.25 C9.40234375 13.4921875 9.40234375 13.4921875 8.75 15.25 C8.2653125 14.64671875 7.780625 14.0434375 7.28125 13.421875 C1.97740109 7.09805514 -2.37789943 3.87403352 -10.25 1.25 C-23.0703233 0.45065131 -33.1464116 1.80180179 -43.25 10.25 C-51.56279238 19.16044412 -52.97506671 28.59560984 -54.25 40.25 C-55.24 39.92 -56.23 39.59 -57.25 39.25 C-58.27151951 25.85674422 -56.80776438 16.79537544 -48.35546875 5.78125 C-35.47829566 -8.27611206 -15.5146211 -10.81590728 0 0 Z " fill="#F8F6F5" transform="translate(272.25,109.75)"/>
<path d="M0 0 C10.16362086 5.58801923 16.37691767 13.45503169 20 24.4375 C20.96788801 27.77561377 20.92510108 29.682591 20 33 C19.48050781 31.91460937 18.96101563 30.82921875 18.42578125 29.7109375 C17.72179152 28.26541192 17.01733975 26.8201113 16.3125 25.375 C15.97283203 24.66214844 15.63316406 23.94929688 15.28320312 23.21484375 C10.57107384 13.61443081 3.94724648 7.38704656 -5.9375 3.125 C-12.99195364 0.75481578 -21.1021144 1.30746518 -28 4 C-36.62732665 8.40202514 -43.17960236 14.84896267 -46.6875 24 C-48.63147919 30.15945579 -48.73550931 36.58838077 -49 43 C-52.27089795 39.72910205 -52.23504113 36.50350252 -52.375 32.0625 C-52.28464441 21.92008459 -48.17756109 12.24236976 -41 5 C-28.10978217 -5.34516568 -15.14593385 -6.57627878 0 0 Z " fill="#F6F4F3" transform="translate(125,44)"/>
<path d="M0 0 C2 0 2 0 4.3125 2.25 C5.6428125 3.61125 5.6428125 3.61125 7 5 C8.2375 5.99 8.2375 5.99 9.5 7 C12 9 12 9 14.1875 11.25 C16.69709012 13.70382145 19.24735959 15.83051156 22 18 C26.15809281 21.28464728 29.96928685 24.6635881 33.453125 28.671875 C35.15810651 30.61429931 35.15810651 30.61429931 38 33 C40.65127469 33.16977494 40.65127469 33.16977494 43 32 C43.721875 31.731875 44.44375 31.46375 45.1875 31.1875 C47.13316656 30.13494292 47.13316656 30.13494292 47.90625 28.125 C51.99502823 20.18108802 62.74496355 14.87724249 70 10 C70.99 10.495 70.99 10.495 72 11 C68.51385738 14.58419039 64.98845345 18.06117525 61.1875 21.3125 C57.93674442 24.10336186 54.93269803 27.06172929 51.9375 30.125 C48.1619005 33.92379827 44.64320223 37.3069427 40 40 C36.10863027 39.7400502 34.33620731 37.61935668 31.75 34.875 C29.02419517 32.05200277 26.31578571 29.33784347 23.3125 26.8125 C4.86808079 10.85956483 4.86808079 10.85956483 0 0 Z " fill="#C65B69" transform="translate(111,206)"/>
<path d="M0 0 C2.59924335 0.52257515 3.5833413 1.19605272 5.359375 3.13671875 C7.234375 6.44921875 7.234375 6.44921875 7.421875 9.07421875 C5.75972478 12.39851919 3.35230969 13.49286757 0.234375 15.44921875 C-0.425625 16.35671875 -1.085625 17.26421875 -1.765625 18.19921875 C-3.765625 20.44921875 -3.765625 20.44921875 -6.765625 21.01171875 C-9.765625 20.44921875 -9.765625 20.44921875 -12.140625 19.01171875 C-14.54326131 15.22294611 -14.55323909 11.81618797 -13.765625 7.44921875 C-10.21486804 1.69454368 -6.56642482 -0.13948288 0 0 Z " fill="#FEF8F8" transform="translate(128.765625,180.55078125)"/>
<path d="M0 0 C5.11467445 2.48523982 8.07103541 6.69534738 10 12 C9.67 12.66 9.34 13.32 9 14 C8.31035156 13.4225 7.62070313 12.845 6.91015625 12.25 C-0.13249472 6.46235565 -0.13249472 6.46235565 -8.7890625 5.0625 C-14.08374888 7.3075967 -18.46255942 12.92511884 -21 18 C-21.23029956 20.37123246 -21.41119942 22.74741943 -21.5625 25.125 C-21.64628906 26.40632813 -21.73007812 27.68765625 -21.81640625 29.0078125 C-21.90728516 30.48894531 -21.90728516 30.48894531 -22 32 C-24 31 -24 31 -25 28 C-26.14623791 10.93796682 -26.14623791 10.93796682 -21 5 C-15.44232754 -1.32368596 -7.92514472 -1.31309683 0 0 Z " fill="#FEFAFA" transform="translate(57,123)"/>
<path d="M0 0 C5.22358921 3.76098423 9.98841062 7.42263012 12.85546875 13.3359375 C9.85546875 13.3359375 9.85546875 13.3359375 7.54296875 11.0859375 C6.65609375 10.1784375 5.76921875 9.2709375 4.85546875 8.3359375 C-3.3941283 1.8130003 -12.87093374 0.36147703 -23.14453125 1.3359375 C-30.76269661 2.57723601 -36.13004193 6.5816055 -41.14453125 12.3359375 C-43.7240133 16.21744383 -45.94831632 20.22944143 -48.14453125 24.3359375 C-48.80453125 25.3259375 -49.46453125 26.3159375 -50.14453125 27.3359375 C-51.13603866 20.06488316 -48.10006125 14.32620516 -44.14453125 8.3359375 C-41.40914142 5.46736389 -38.52667905 3.38347723 -35.14453125 1.3359375 C-34.19900391 0.68818359 -34.19900391 0.68818359 -33.234375 0.02734375 C-24.52954015 -4.97404248 -8.73181521 -4.91491395 0 0 Z " fill="#F7F5F3" transform="translate(65.14453125,107.6640625)"/>
<path d="M0 0 C2.0625 0.25 2.0625 0.25 4 1 C6.3658862 5.73177239 5.55347834 11.88303851 5 17 C2.35602708 24.49798428 -3.16190528 30.06646742 -10 34 C-10.99 34 -11.98 34 -13 34 C-12.50083524 29.32289462 -11.34684381 26.52420409 -8.5625 22.75 C-7.94503906 21.89921875 -7.32757813 21.0484375 -6.69140625 20.171875 C-5 18 -5 18 -3 16 C-2.74917923 13.67420741 -2.59579164 11.33731602 -2.5 9 C-2.22222222 2.22222222 -2.22222222 2.22222222 0 0 Z " fill="#FEF7F8" transform="translate(178,188)"/>
<path d="M0 0 C0.33 0 0.66 0 1 0 C1.50925868 6.90328428 1.20696442 12.30535541 -3 18 C-7.80083255 22.90775533 -11.17779945 25.17153989 -18.125 25.4375 C-23.92576942 25.39904186 -27.12606986 24.51811044 -31.41796875 20.6328125 C-31.94003906 20.09398438 -32.46210937 19.55515625 -33 19 C-33.78375 18.236875 -34.5675 17.47375 -35.375 16.6875 C-37.61519512 12.98256191 -38.29846534 9.23690011 -39 5 C-38.443125 5.70125 -37.88625 6.4025 -37.3125 7.125 C-36.1678125 8.548125 -36.1678125 8.548125 -35 10 C-34.195625 11.03125 -33.39125 12.0625 -32.5625 13.125 C-30.09457168 15.89389519 -28.41183328 17.58533742 -25 19 C-21.96132655 18.76167267 -19.72209981 18.3610499 -17 17 C-15.58333333 17 -14.16666667 17 -12.75 17 C-9.66613283 16.69210988 -8.38044809 16.3732396 -6.14453125 14.1796875 C-3.05848079 9.68395967 -1.13156601 5.31836023 0 0 Z " fill="#CC606D" transform="translate(130,80)"/>
<path d="M0 0 C0.33 0 0.66 0 1 0 C1.80835662 10.11942731 0.81338285 17.51774594 -5 26 C-8.64366008 30.16163137 -12.15448341 31.73779983 -17.5859375 32.23828125 C-23.62135894 32.3988877 -27.32768598 32.22733173 -32 28 C-39.29550809 20.19502906 -39.29550809 20.19502906 -39.125 14.3125 C-39.10695312 13.50425781 -39.08890625 12.69601563 -39.0703125 11.86328125 C-39.04710937 11.24839844 -39.02390625 10.63351563 -39 10 C-37.36121219 12.45818172 -36.07718052 14.8141065 -34.75 17.4375 C-32.40360265 21.61340717 -30.51954979 24.03868594 -26 26 C-19.7615402 26.88825752 -14.49751539 26.23383258 -9 23 C-4.39001821 18.3759204 -2.92738234 14.45859809 -1.6875 8.125 C-1.51927734 7.34125 -1.35105469 6.5575 -1.17773438 5.75 C-0.76939314 3.83662964 -0.38246026 1.91871125 0 0 Z " fill="#CC616E" transform="translate(209,73)"/>
<path d="M0 0 C4.32803128 3.09145092 7.17528615 6.00695783 8.4375 11.25 C8.499375 12.11625 8.56125 12.9825 8.625 13.875 C8.0371875 13.0396875 8.0371875 13.0396875 7.4375 12.1875 C3.37935249 6.69632804 3.37935249 6.69632804 -2.75 4.3125 C-6.34065116 4.86967001 -8.53712135 5.91499873 -11.5546875 7.890625 C-13.57952108 8.98559938 -15.16772682 9.20656925 -17.4375 9.5 C-20.46886729 10.11335058 -21.2487872 10.71108727 -23.1796875 13.21875 C-24.24813805 15.03869449 -25.27270587 16.88530067 -26.24609375 18.7578125 C-26.61863281 19.45648438 -26.99117187 20.15515625 -27.375 20.875 C-27.705 20.875 -28.035 20.875 -28.375 20.875 C-28.99374476 14.93505033 -28.56775656 10.60855261 -25.04296875 5.671875 C-18.25049823 -1.64554055 -9.30272191 -3.1009073 0 0 Z " fill="#FEFCFA" transform="translate(258.375,124.125)"/>
<path d="M0 0 C4.88525355 2.89647601 8.78538207 7.23049441 10.21484375 12.796875 C10.5 15 10.5 15 10.625 18.5 C10.25375 17.984375 9.8825 17.46875 9.5 16.9375 C8.571875 15.7309375 8.571875 15.7309375 7.625 14.5 C6.98691406 13.64921875 6.98691406 13.64921875 6.3359375 12.78125 C2.29251946 7.6783267 -1.35533388 4.96876573 -8.0546875 4.1875 C-12.50142301 3.99468762 -15.65062431 4.17805525 -19.75 6 C-26.00316158 11.95539199 -28.21314537 18.03753645 -29.375 26.5 C-29.705 26.5 -30.035 26.5 -30.375 26.5 C-31.02596314 18.08087666 -30.58902035 11.4030692 -25.375 4.5 C-18.44500261 -2.57142591 -9.08632062 -3.85690856 0 0 Z " fill="#FEF9F8" transform="translate(120.375,55.5)"/>
<path d="M0 0 C0.33 0 0.66 0 1 0 C1.69203565 8.08912785 0.94465065 14.36467255 -4 21 C-8.35364123 25.37109069 -12.50925775 27.3560153 -18.6875 27.625 C-25.16191973 27.22768554 -28.30066637 24.69933363 -32.8125 20.1875 C-35.24162956 16.64791121 -35.74550115 14.24164745 -36 10 C-35.566875 10.598125 -35.13375 11.19625 -34.6875 11.8125 C-33.19773914 13.74367149 -31.78467878 15.34751965 -30 17 C-29.13375 17.886875 -28.2675 18.77375 -27.375 19.6875 C-24.11199176 22.35944223 -21.38261423 22.69381697 -17.234375 22.39453125 C-13.42446468 21.72180233 -10.69242334 20.74395297 -8 18 C-4.47086323 12.32410722 -2.02024106 6.35474887 0 0 Z " fill="#CC616F" transform="translate(266,140)"/>
<path d="M0 0 C3.16233683 1.51869063 5.75508404 3.28629276 8 6 C8 6.99 8 7.98 8 9 C7.2575 8.505 6.515 8.01 5.75 7.5 C0.22763704 4.77807703 -6.50427938 4.93531352 -12.30859375 6.703125 C-18.07901036 9.71768962 -20.61034086 14.83832443 -23.5546875 20.453125 C-25 23 -25 23 -27 24 C-27.71987696 17.37713193 -25.76448451 12.46254554 -22 7 C-15.23236982 0.58175034 -9.30937472 -1.25363151 0 0 Z " fill="#FEF9F8" transform="translate(196,55)"/>
<path d="M0 0 C0.33 0 0.66 0 1 0 C1.47703124 7.20847206 1.42951089 13.03980186 -3 19 C-6.71591287 22.80323197 -10.7303907 26.27330379 -16.1875 26.4375 C-21.40031594 26.33528792 -25.07297223 24.34315314 -29 21 C-29.66 20.01 -30.32 19.02 -31 18 C-24.125 19.875 -24.125 19.875 -23 21 C-16.39900157 21.53885701 -11.01989978 20.20371065 -5.6875 16.3125 C-2.1488581 11.46324999 -0.73849064 5.9079251 0 0 Z " fill="#CE6471" transform="translate(68,141)"/>
<path d="M0 0 C1.485 0.99 1.485 0.99 3 2 C3.51171875 5.0390625 3.51171875 5.0390625 3.6875 8.625 C3.75324219 9.81351563 3.81898437 11.00203125 3.88671875 12.2265625 C3.92410156 13.14179688 3.96148438 14.05703125 4 15 C3.01 14.67 2.02 14.34 1 14 C0.67 9.38 0.34 4.76 0 0 Z " fill="#C7A18F" transform="translate(14,132)"/>
</svg>
