<?xml version="1.0" encoding="UTF-8"?>
<svg version="1.1" xmlns="http://www.w3.org/2000/svg" width="512" height="512">
<path d="M0 0 C0.60199219 0.51949219 1.20398438 1.03898437 1.82421875 1.57421875 C9.95888165 9.10210027 17.50869003 19.88273332 22 30 C22 30.66 22 31.32 22 32 C22.66 32 23.32 32 24 32 C24.23460937 31.15050781 24.46921875 30.30101562 24.7109375 29.42578125 C26.16418238 25.56367289 28.19700517 22.47948023 30.625 19.1875 C31.07447998 18.57293945 31.52395996 17.95837891 31.98706055 17.32519531 C41.24516788 4.81024448 52.28332346 -6.15136926 67 -12 C67.76699219 -12.31710938 68.53398437 -12.63421875 69.32421875 -12.9609375 C84.56771031 -18.17770541 104.11371278 -15.96077008 118.6875 -9.75 C137.67714542 -0.35248879 150.74830671 13.50960049 157.97265625 33.6015625 C161.66310621 45.80951483 163.19339746 58.23022919 163.125 70.9375 C163.12306641 71.81051758 163.12113281 72.68353516 163.11914062 73.58300781 C163.07974115 79.44696321 162.77576602 85.18175487 162 91 C162.58007812 90.79503906 163.16015625 90.59007812 163.7578125 90.37890625 C164.53898437 90.10949219 165.32015625 89.84007812 166.125 89.5625 C166.89070313 89.29566406 167.65640625 89.02882813 168.4453125 88.75390625 C186.8185633 83.33183071 208.42032088 87.2863042 225 96 C241.86604645 106.39597662 252.60778787 120.7654033 257.49658203 139.85205078 C261.3479556 156.28482706 263.27415909 176.30420884 256 192 C255.72623535 192.61456055 255.4524707 193.22912109 255.17041016 193.86230469 C245.06786347 216.34526225 230.57124176 234.55930611 207.1875 243.875 C193.03113849 248.93934061 179.84638826 249.73569466 165 248 C165.44730469 248.59425781 165.89460938 249.18851562 166.35546875 249.80078125 C179.94807327 268.43627103 183.43144368 290.83955055 180.50390625 313.47265625 C177.13326356 334.83276975 166.42804015 353.05106173 149.24609375 366.08984375 C129.08763538 379.49947326 104.62961065 385.33615799 80.7109375 380.8203125 C76.4587515 379.94287729 72.22780747 378.98769731 68 378 C65.06844723 377.32459567 62.13653033 376.65083914 59.20410156 375.97924805 C57.33327167 375.54787043 55.46399419 375.10967935 53.59667969 374.66333008 C52.7359082 374.46118896 51.87513672 374.25904785 50.98828125 374.05078125 C49.86740112 373.78261597 49.86740112 373.78261597 48.72387695 373.5090332 C41.7072532 372.19777923 34.70336577 371.8272745 27.578125 371.76171875 C26.692388 371.75219681 25.806651 371.74267487 24.89407349 371.73286438 C22.01268231 371.70834863 19.13148177 371.69583573 16.25 371.6875 C15.25768372 371.68355225 14.26536743 371.67960449 13.24298096 371.67553711 C-0.51009194 371.65017719 -13.97804635 372.30893758 -27.625 374 C-38.45626055 375.33865614 -49.06624596 376.40677426 -60 376.4375 C-61.03721191 376.44716797 -62.07442383 376.45683594 -63.14306641 376.46679688 C-77.93348894 376.30210902 -91.76588387 372.24489518 -102.6875 361.9375 C-123.1911359 339.70960952 -132.02750843 315.22479981 -131.18359375 285.22363281 C-130.49375679 273.11112313 -126.74475594 260.11713391 -120 250 C-120.64324219 250.02094727 -121.28648438 250.04189453 -121.94921875 250.06347656 C-145.6196188 250.73036729 -166.17841468 247.44958683 -184.546875 231.3359375 C-195.77563456 220.64358365 -203.72136401 208.15479476 -210 194 C-210.41507813 193.10023438 -210.83015625 192.20046875 -211.2578125 191.2734375 C-218.49160422 172.5060478 -214.96867506 147.20513619 -207.44140625 129.02734375 C-199.38498876 112.10668371 -186.51403263 99.65797704 -168.953125 92.9921875 C-151.86883015 87.252226 -131.84621902 85.27881628 -115 93 C-115.309375 92.154375 -115.61875 91.30875 -115.9375 90.4375 C-122.56745418 68.98764824 -117.5783783 39.69557702 -107.375 20.0625 C-98.36678791 3.76058395 -83.59408163 -8.12260457 -66.0078125 -14 C-41.99199266 -20.91868494 -18.77678477 -16.67220644 0 0 Z M21 119 C19.87266647 120.64489562 18.82346397 122.34362992 17.8125 124.0625 C14.72572552 129.08175094 11.3899365 133.09042129 7 137 C10.36176049 138.68088024 14.05907043 137.52723919 17.6875 137.0625 C23.17013671 136.36990938 28.4700657 135.87415143 34 136 C33.43732422 135.29037109 33.43732422 135.29037109 32.86328125 134.56640625 C29.03685595 129.62193225 25.89656376 124.53679445 23 119 C22.34 119 21.68 119 21 119 Z M-68 153 C-67.855625 153.95519531 -67.71125 154.91039062 -67.5625 155.89453125 C-65.71528254 168.76091395 -65.89029542 180.09689609 -68 193 C-63.80480758 189.53440626 -59.88764919 185.93494625 -56.0625 182.0625 C-49.16396733 175.10163119 -41.76827792 168.94739671 -34.125 162.8203125 C-33.073125 161.91925781 -33.073125 161.91925781 -32 161 C-32 160.67 -32 160.34 -32 160 C-33.11375 159.91363281 -34.2275 159.82726562 -35.375 159.73828125 C-45.03654484 158.8841632 -53.7686193 157.19300021 -62.9375 154.0234375 C-65.77798321 152.89434883 -65.77798321 152.89434883 -68 153 Z M104.0625 156.375 C97.77834504 158.53852201 91.59774592 160.08097926 85 161 C85.7321875 161.72703125 86.464375 162.4540625 87.21875 163.203125 C96.754657 172.79260452 104.92309882 183.1806116 113 194 C114.00982959 190.4393456 113.81217408 188.14547394 113.0625 184.5 C111.22586423 174.27440624 111.97867826 164.28616895 113 154 C109.83940569 154 107.01589619 155.33627941 104.0625 156.375 Z " fill="#30191A" transform="translate(232,72)"/>
<path d="M0 0 C10.83744756 7.95766367 20.99494746 17.17912094 29.79296875 27.359375 C37.48762656 36.26069506 45.45194759 44.94702502 54.16796875 52.859375 C65.28352081 62.96612351 75.89017155 72.7984132 83.66796875 85.796875 C84.06387207 86.45059082 84.45977539 87.10430664 84.86767578 87.77783203 C95.07428875 104.91996494 98.31959606 123.05755544 94.484375 142.796875 C90.19547194 158.55705468 80.6870715 173.63219091 66.8203125 182.6484375 C51.26188165 190.8150432 35.05679752 194.1912085 17.60546875 194.171875 C16.30794678 194.17243896 15.0104248 194.17300293 13.67358398 194.17358398 C1.72240756 194.08363095 -9.89304425 192.48827835 -21.62670898 190.27758789 C-27.5734289 189.22090605 -33.38392417 188.6139615 -39.421875 188.5234375 C-40.19111801 188.51118134 -40.96036102 188.49892517 -41.75291443 188.48629761 C-44.25848623 188.45421289 -46.76379288 188.43544882 -49.26953125 188.421875 C-50.55951019 188.41353638 -50.55951019 188.41353638 -51.87554932 188.4050293 C-64.04181234 188.36560068 -75.72720126 189.18446193 -87.70703125 191.296875 C-88.37054596 191.41371643 -89.03406067 191.53055786 -89.71768188 191.65093994 C-90.37070282 191.76629089 -91.02372375 191.88164185 -91.6965332 192.00048828 C-113.6613081 195.87372528 -133.63871206 193.59212337 -152.88671875 181.5234375 C-163.80170962 173.81668676 -170.81225694 164.81484515 -176.33203125 152.796875 C-176.72777344 152.05050781 -177.12351562 151.30414063 -177.53125 150.53515625 C-183.02685961 139.17756305 -181.45072074 122.20575196 -177.56787109 110.49145508 C-175.31009057 104.41966727 -172.36142625 99.49984662 -168.45703125 94.359375 C-167.89113281 93.59786133 -167.32523438 92.83634766 -166.7421875 92.05175781 C-165.54833003 90.44529796 -164.3506769 88.84165255 -163.14941406 87.24072266 C-161.34506995 84.81440824 -159.57995264 82.36400646 -157.82421875 79.90234375 C-151.08402645 70.49830081 -144.01493915 61.82050745 -135.95741272 53.52044678 C-134.28931343 51.75157657 -132.70198382 49.93141038 -131.11694336 48.08789062 C-127.46499645 43.90122949 -123.64398563 39.91422738 -119.73828125 35.96484375 C-119.02909546 35.24758621 -118.31990967 34.53032867 -117.5892334 33.79133606 C-116.09481365 32.28317887 -114.59890153 30.77649912 -113.1015625 29.27124023 C-111.59832738 27.75652387 -110.09955638 26.23736307 -108.60546875 24.71362305 C-96.93762219 12.81515098 -84.93029495 1.90475287 -70.20703125 -6.140625 C-69.54437256 -6.50341553 -68.88171387 -6.86620605 -68.19897461 -7.23999023 C-44.58293405 -19.77760025 -21.51130906 -14.22318676 0 0 Z " fill="#FEE7CB" transform="translate(297.33203125,238.203125)"/>
<path d="M0 0 C5.37918334 3.11887503 9.25516477 7.08490376 13 12 C16.40822385 11.44163141 17.62627294 10.58987227 19.625 7.8125 C24.8786651 1.34849687 31.99518449 -2.11296599 40 -4 C55.60586315 -5.49454814 67.99391914 -1.26576137 80.49609375 7.8125 C89.5384218 15.71219377 95.3575201 27.25267628 96.44140625 39.12109375 C97.59666223 59.43974485 88.89137261 76.15237805 75.6796875 91.0078125 C66.06058673 101.57323062 56.02543896 112.01918831 44.75 120.828125 C41.16231795 123.66157844 37.70688252 126.63428054 34.25 129.625 C33.32815918 130.41559814 33.32815918 130.41559814 32.38769531 131.22216797 C28.62177556 134.48305207 25.08986945 137.87677381 21.66699219 141.49755859 C18.62857254 144.23605223 16.70852762 145.02515963 12.58984375 144.87890625 C8.58048239 143.89728894 6.66241818 142.62286746 3.5625 139.9375 C2.62664062 139.13183594 1.69078125 138.32617188 0.7265625 137.49609375 C-2.43413717 134.60255924 -5.4830677 131.63104757 -8.44140625 128.53125 C-9.94013391 126.90167459 -9.94013391 126.90167459 -12 126 C-12 125.34 -12 124.68 -12 124 C-12.89489136 123.58729858 -12.89489136 123.58729858 -13.80786133 123.16625977 C-15.8993008 122.0535739 -17.35487832 120.95097976 -19.07421875 119.33984375 C-19.65083252 118.80222412 -20.22744629 118.26460449 -20.8215332 117.71069336 C-21.43730225 117.12553955 -22.05307129 116.54038574 -22.6875 115.9375 C-23.3374292 115.32334229 -23.9873584 114.70918457 -24.65698242 114.07641602 C-26.77978385 112.05959065 -28.89141734 110.03168253 -31 108 C-31.72606445 107.30261719 -32.45212891 106.60523438 -33.20019531 105.88671875 C-50.69366054 89.00286259 -67.78310824 70.70924866 -68.4375 44.875 C-67.85433783 28.56468306 -61.48751113 17.64904917 -49.84375 6.453125 C-35.68873246 -5.757522 -17.03513467 -7.77377977 0 0 Z " fill="#FC8C95" transform="translate(242,277)"/>
<path d="M0 0 C18.66967403 -1.04944557 33.49273554 3.04464292 47.96826172 15.39013672 C60.07226306 26.73526651 67.3972496 42.21225848 68.23657227 58.82104492 C68.67699278 79.44294466 62.97665319 104.17327425 49.02685547 119.97216797 C35.96513188 132.57957073 19.25602308 140.76905996 0.96826172 140.64013672 C-0.47468262 140.63046875 -0.47468262 140.63046875 -1.94677734 140.62060547 C-14.92692807 140.28856526 -23.53595615 135.71019481 -33.21923828 127.14013672 C-34.27111328 126.37701172 -35.32298828 125.61388672 -36.40673828 124.82763672 C-49.98816496 111.849829 -51.9243948 92.34800367 -52.40673828 74.50732422 C-52.73492014 53.97470303 -51.76764616 34.74694047 -38.21923828 18.14013672 C-37.67009766 17.44275391 -37.12095703 16.74537109 -36.55517578 16.02685547 C-29.07782325 7.54483663 -16.80103962 1.55833523 -5.59814453 0.32373047 C-3.73173193 0.22231845 -1.8654502 0.1177963 0 0 Z " fill="#FDE8CD" transform="translate(315.21923828125,73.85986328125)"/>
<path d="M0 0 C1.40572266 0.00193359 1.40572266 0.00193359 2.83984375 0.00390625 C17.27223268 0.18557268 30.61915655 5.41588008 41.875 14.375 C42.865 15.14714844 43.855 15.91929688 44.875 16.71484375 C53.05948252 23.59952189 58.65637168 34.33147004 61.875 44.375 C62.13321533 45.17309082 62.39143066 45.97118164 62.6574707 46.79345703 C65.07764863 55.15459381 65.36884125 63.15002991 65.32104492 71.78222656 C65.31256079 74.10833197 65.34135736 76.43194936 65.37304688 78.7578125 C65.45348324 95.85964773 62.02044893 113.72337224 49.83984375 126.5703125 C37.70958694 137.71182075 22.88590898 142.96893809 6.5625 142.6875 C-8.56683293 141.40535314 -21.88298541 134.44565655 -32.125 123.375 C-46.26473351 105.52873441 -52.68176107 85.86000653 -54.125 63.375 C-54.1971875 62.25996094 -54.269375 61.14492187 -54.34375 59.99609375 C-54.83745657 44.21805458 -48.3718824 28.47917042 -37.8125 16.8125 C-27.47083847 5.96623578 -15.00673514 -0.39546181 0 0 Z " fill="#FDE8CD" transform="translate(185.125,72.625)"/>
<path d="M0 0 C10.35312958 8.6764435 18.04153179 21.65675902 19.54296875 35.15625 C20.7441295 49.35045452 21.86559632 64.24999899 15.9375 77.5 C15.463125 78.64339844 14.98875 79.78679687 14.5 80.96484375 C10.38965263 90.06491568 5.02653429 96.59056867 -2.0625 103.5 C-2.66964844 104.11617188 -3.27679688 104.73234375 -3.90234375 105.3671875 C-13.52278004 114.44662126 -27.29436348 119.09469915 -40.3125 119 C-41.69066895 118.99141968 -41.69066895 118.99141968 -43.09667969 118.98266602 C-54.99316323 118.67218661 -64.33276235 114.68312424 -73.0625 106.5 C-73.83464844 105.79230469 -74.60679687 105.08460938 -75.40234375 104.35546875 C-84.50831636 95.21919341 -87.96464036 83.68536971 -90.421875 71.3046875 C-90.98142468 68.50676133 -90.98142468 68.50676133 -92.078125 66.0078125 C-96.66157087 54.33093849 -95.51002525 38.52789859 -90.82104492 27.10375977 C-83.10552388 9.99182853 -70.49038511 -1.74964412 -53.0625 -8.5 C-34.10163471 -14.43522884 -16.04081344 -11.74019474 0 0 Z " fill="#FDE8CD" transform="translate(454.0625,185.5)"/>
<path d="M0 0 C0.61230469 0.41636719 1.22460938 0.83273438 1.85546875 1.26171875 C14.65871337 11.01796694 20.88360405 27.20513381 23.17797852 42.57299805 C25.85103645 63.07589961 24.1509167 83.63912462 12.125 101.0625 C6.67398339 108.04726273 0.12313746 112.58372724 -8 116 C-9.01900391 116.45052734 -9.01900391 116.45052734 -10.05859375 116.91015625 C-20.64579003 120.8551254 -35.11701776 120.90655472 -45.46484375 116.31640625 C-46.30144531 115.88199219 -47.13804688 115.44757813 -48 115 C-48.97066406 114.51402344 -49.94132812 114.02804687 -50.94140625 113.52734375 C-68.66884455 103.9504518 -79.59374188 88.80476447 -86 70 C-86.99832405 66.01174584 -87.5901375 62.08797921 -88 58 C-88.16435547 56.39125 -88.16435547 56.39125 -88.33203125 54.75 C-88.61941442 51.50065428 -88.82644133 48.25725218 -89 45 C-89.06574219 44.07316406 -89.13148437 43.14632812 -89.19921875 42.19140625 C-89.7440887 29.2460479 -84.51708279 16.46478606 -76.0390625 6.75390625 C-55.2913731 -13.02967119 -23.69357373 -16.62337766 0 0 Z " fill="#FDE8CD" transform="translate(126,186)"/>
<path d="M0 0 C5.37918334 3.11887503 9.25516477 7.08490376 13 12 C16.40822385 11.44163141 17.62627294 10.58987227 19.625 7.8125 C24.8786651 1.34849687 31.99518449 -2.11296599 40 -4 C55.60586315 -5.49454814 67.99391914 -1.26576137 80.49609375 7.8125 C89.5384218 15.71219377 95.3575201 27.25267628 96.44140625 39.12109375 C97.59666223 59.43974485 88.89137261 76.15237805 75.6796875 91.0078125 C66.06058673 101.57323062 56.02543896 112.01918831 44.75 120.828125 C41.16231795 123.66157844 37.70688252 126.63428054 34.25 129.625 C33.32815918 130.41559814 33.32815918 130.41559814 32.38769531 131.22216797 C28.62177556 134.48305207 25.08986945 137.87677381 21.66699219 141.49755859 C18.62857254 144.23605223 16.70852762 145.02515963 12.58984375 144.87890625 C8.58048239 143.89728894 6.66241818 142.62286746 3.5625 139.9375 C2.62664062 139.13183594 1.69078125 138.32617188 0.7265625 137.49609375 C-2.43413717 134.60255924 -5.4830677 131.63104757 -8.44140625 128.53125 C-9.94013391 126.90167459 -9.94013391 126.90167459 -12 126 C-12 125.34 -12 124.68 -12 124 C-12.89489136 123.58729858 -12.89489136 123.58729858 -13.80786133 123.16625977 C-15.8993008 122.0535739 -17.35487832 120.95097976 -19.07421875 119.33984375 C-19.65083252 118.80222412 -20.22744629 118.26460449 -20.8215332 117.71069336 C-21.43730225 117.12553955 -22.05307129 116.54038574 -22.6875 115.9375 C-23.3374292 115.32334229 -23.9873584 114.70918457 -24.65698242 114.07641602 C-26.77978385 112.05959065 -28.89141734 110.03168253 -31 108 C-31.72606445 107.30261719 -32.45212891 106.60523438 -33.20019531 105.88671875 C-50.69366054 89.00286259 -67.78310824 70.70924866 -68.4375 44.875 C-67.85433783 28.56468306 -61.48751113 17.64904917 -49.84375 6.453125 C-35.68873246 -5.757522 -17.03513467 -7.77377977 0 0 Z M-46 24 C-51.42368276 30.86908045 -53.61740707 38.32634699 -53.36328125 47.046875 C-51.11623729 65.31316781 -40.78957271 78.63843591 -27.125 90.3125 C-23.9830223 93.01168934 -21.23709569 95.89137414 -18.5 99 C-14.6080736 103.41084992 -10.48261333 107.20894226 -6 111 C-4.3064713 112.49319013 -2.61924107 113.99354614 -0.9375 115.5 C-0.09703125 116.25023437 0.7434375 117.00046875 1.609375 117.7734375 C4.35607395 120.3316375 6.87810308 123.04407811 9.33203125 125.8828125 C10.98407084 127.21795934 10.98407084 127.21795934 13.30078125 126.96875 C16.81946728 125.70589308 19.49077508 123.68634828 22.375 121.375 C22.94863281 120.92423096 23.52226562 120.47346191 24.11328125 120.0090332 C28.3805868 116.60958245 32.270334 112.98141846 36 109 C39.64258393 105.28927249 43.4102011 101.75243455 47.25 98.25 C51.96761622 93.9271857 56.54714547 89.50797677 61.01953125 84.9296875 C62.79117071 83.20347469 64.59677143 81.74307024 66.5625 80.25 C74.96455972 73.19617777 80.88360087 60.87858816 82.41015625 50.10546875 C82.94506408 39.64047709 79.46177555 30.46614655 72.8125 22.4375 C68.43213801 17.92528765 64.01871829 15.65280865 58 14 C57.33742188 13.81179688 56.67484375 13.62359375 55.9921875 13.4296875 C45.97856894 11.26988742 36.86427633 14.38723878 28.375 19.6875 C24.03532939 22.71046624 20.55529673 26.40526869 17.04296875 30.33984375 C15 32 15 32 12.8671875 31.9140625 C10.4446497 30.72813395 9.30407784 28.90703643 7.671875 26.81640625 C4.02735687 22.85682464 -0.55107899 19.97862233 -5 17 C-5.63679688 16.53851563 -6.27359375 16.07703125 -6.9296875 15.6015625 C-19.86008499 7.49851341 -36.53132153 13.84908051 -46 24 Z " fill="#2F1C1D" transform="translate(242,277)"/>
<path d="M0 0 C3.19309674 3.09918213 5.67815229 6.18553591 8 10 C8 10.66 8 11.32 8 12 C8.66 12 9.32 12 10 12 C10.33 11.01 10.66 10.02 11 9 C15.22325736 28.90964183 13.68581507 47.86496724 3.4375 65.72265625 C-7.73991728 82.67686371 -23.05295035 91.00139246 -42.41918945 95.57080078 C-49.96892026 97.11765582 -57.37147276 97.38352053 -65.0625 97.375 C-66.36002197 97.37556396 -67.65754395 97.37612793 -68.99438477 97.37670898 C-80.94556119 97.28675595 -92.561013 95.69140335 -104.29467773 93.48071289 C-110.24139765 92.42403105 -116.05189292 91.8170865 -122.08984375 91.7265625 C-122.85908676 91.71430634 -123.62832977 91.70205017 -124.42088318 91.68942261 C-126.92645498 91.65733789 -129.43176163 91.63857382 -131.9375 91.625 C-132.79748596 91.61944092 -133.65747192 91.61388184 -134.54351807 91.6081543 C-146.70978109 91.56872568 -158.39517001 92.38758693 -170.375 94.5 C-171.03851471 94.61684143 -171.70202942 94.73368286 -172.38565063 94.85406494 C-173.03867157 94.96941589 -173.6916925 95.08476685 -174.36450195 95.20361328 C-196.32927685 99.07685028 -216.30668081 96.79524837 -235.5546875 84.7265625 C-249.5183021 74.86726912 -257.7009171 62.42738993 -262 46 C-261.34 46 -260.68 46 -260 46 C-259.88785156 45.27425781 -259.77570313 44.54851562 -259.66015625 43.80078125 C-258.97038613 40.87436007 -257.94489186 38.77712191 -256.4375 36.1875 C-255.98246094 35.39730469 -255.52742188 34.60710937 -255.05859375 33.79296875 C-254.70925781 33.20128906 -254.35992187 32.60960937 -254 32 C-253.34 32 -252.68 32 -252 32 C-251.77957031 32.92619141 -251.77957031 32.92619141 -251.5546875 33.87109375 C-248.43951531 45.63355426 -241.62166211 54.62361021 -231.22412109 61.10742188 C-204.93660505 76.26783976 -178.33560572 73.29756899 -150 66 C-150 66.66 -150 67.32 -150 68 C-149.40445313 68.26554687 -148.80890625 68.53109375 -148.1953125 68.8046875 C-145.93670616 70.03446248 -144.61255644 71.24774053 -142.875 73.125 C-135.03876928 81.1501036 -135.03876928 81.1501036 -125.25 86.25 C-118.99464575 85.7688189 -115.88920284 81.94745868 -111.6875 77.6875 C-110.90890625 76.91019531 -110.1303125 76.13289063 -109.328125 75.33203125 C-107.85384853 73.85528116 -106.40247363 72.35499576 -104.984375 70.82421875 C-101.64153457 67.64086499 -99.27488071 66.11763605 -94.61328125 65.6875 C-87.80068463 66.0181417 -81.13244269 67.12911895 -74.3972168 68.16015625 C-73.52363525 68.29292969 -72.65005371 68.42570312 -71.75 68.5625 C-70.86932861 68.6965625 -69.98865723 68.830625 -69.08129883 68.96875 C-50.78980612 71.60152823 -32.18144134 71.51752096 -16.625 60.28515625 C-7.83704973 53.02619057 -2.67968221 43.65073847 1 33 C1.4125 31.9275 1.825 30.855 2.25 29.75 C4.29683996 19.5158002 3.04111431 9.88362151 0 0 Z " fill="#D5997F" transform="translate(380,335)"/>
<path d="M0 0 C7.5533671 6.12123022 14.02949778 14.74189322 15.76660156 24.50195312 C16.91446141 35.82686322 15.19725524 47.03905048 8.6796875 56.5703125 C4.49070909 61.67596303 -1.36301919 66.95707095 -7.6328125 69.2578125 C-10.44841811 69.47702547 -13.13220001 69.58246943 -15.9453125 69.5703125 C-16.67943359 69.58642578 -17.41355469 69.60253906 -18.16992188 69.61914062 C-27.38680995 69.62731888 -33.99103811 65.3188853 -40.6328125 59.2578125 C-47.29254774 51.90465581 -50.18113 44.98003558 -50.0078125 35.1328125 C-49.99766113 34.2989502 -49.98750977 33.46508789 -49.97705078 32.60595703 C-49.70627471 21.70564584 -48.13646848 11.60786785 -40.6328125 3.2578125 C-28.87658215 -7.89882869 -13.56993859 -8.97951426 0 0 Z " fill="#FD8D96" transform="translate(210.6328125,107.7421875)"/>
<path d="M0 0 C6.74490422 5.04028297 11.20762844 11.36574645 13.1484375 19.60546875 C14.4381082 32.87764946 11.88699526 46.49175808 3.8984375 57.35546875 C-1.99115097 64.48098799 -8.23885687 69.0529226 -17.62109375 69.9765625 C-28.18271422 70.29653309 -34.77989373 68.56428556 -42.6015625 61.29296875 C-50.86717007 52.39449564 -53.41034187 43.28758137 -53.171875 31.2109375 C-52.37950293 24.76566713 -48.36766058 19.87961587 -44.8515625 14.60546875 C-44.2838715 13.29520564 -43.72168627 11.98254786 -43.1640625 10.66796875 C-40.0671022 4.35307315 -34.14912127 0.26613052 -27.7265625 -2.33203125 C-18.55633561 -4.88556203 -8.30479051 -4.92493391 0 0 Z " fill="#FD8D96" transform="translate(339.8515625,107.39453125)"/>
<path d="M0 0 C10.83744756 7.95766367 20.99494746 17.17912094 29.79296875 27.359375 C37.48762656 36.26069506 45.45194759 44.94702502 54.16796875 52.859375 C68.19775615 65.61587438 79.56596529 78.00037017 88.73046875 94.734375 C89.12532471 95.44440674 89.52018066 96.15443848 89.92700195 96.88598633 C92.11410854 101.03113946 93.14206498 103.98818464 92.66796875 108.796875 C92.00796875 108.796875 91.34796875 108.796875 90.66796875 108.796875 C88.89472845 106.2658397 87.23680334 103.73001179 85.60546875 101.109375 C84.60532695 99.54092619 83.60401198 97.97322489 82.6015625 96.40625 C81.21642485 94.23056599 79.83157717 92.054714 78.44970703 89.87695312 C72.22471558 80.15328341 65.06322589 72.75609136 55.78125 65.921875 C51.75627323 62.92507658 48.07124287 59.66972062 44.41796875 56.234375 C43.54978516 55.43676758 43.54978516 55.43676758 42.6640625 54.62304688 C38.03711425 50.2982869 33.75694863 45.68043518 29.48258972 41.01263428 C24.08579105 35.13251446 18.55486757 29.39301258 12.94116211 23.7199707 C11.79709437 22.55924891 10.65843224 21.39317507 9.52514648 20.22192383 C-4.68950022 5.53855042 -19.6046097 -4.23313183 -40.64453125 -4.578125 C-58.57052386 -4.52310112 -73.10104553 3.85231475 -85.63671875 16.16357422 C-87.52121331 17.9791371 -89.45216716 19.73480845 -91.39453125 21.48828125 C-97.85208952 27.34743565 -103.86154104 32.85868961 -108.5703125 40.26171875 C-113.91242422 47.94914781 -120.90241752 54.80830316 -128.0703125 60.7890625 C-131.94003506 64.22436025 -135.5269257 67.951939 -139.14599609 71.64819336 C-141.96684046 74.51025007 -144.80139308 77.22465108 -147.91015625 79.7734375 C-151.53371803 82.82887493 -154.27291244 86.26420706 -157.01953125 90.109375 C-157.49575928 90.76873047 -157.9719873 91.42808594 -158.46264648 92.10742188 C-161.76337858 96.7715869 -164.50960826 101.35210509 -166.33203125 106.796875 C-166.72390625 107.869375 -167.11578125 108.941875 -167.51953125 110.046875 C-168.25765912 113.45361903 -168.38465035 116.27286502 -168.45703125 119.734375 C-168.9542997 128.4416471 -173.13541076 135.35002452 -177.33203125 142.796875 C-178.32203125 142.796875 -179.31203125 142.796875 -180.33203125 142.796875 C-180.72095777 124.75500588 -179.7272129 109.19753789 -168.45703125 94.359375 C-167.89113281 93.59786133 -167.32523438 92.83634766 -166.7421875 92.05175781 C-165.54833003 90.44529796 -164.3506769 88.84165255 -163.14941406 87.24072266 C-161.34506995 84.81440824 -159.57995264 82.36400646 -157.82421875 79.90234375 C-151.08402645 70.49830081 -144.01493915 61.82050745 -135.95741272 53.52044678 C-134.28931343 51.75157657 -132.70198382 49.93141038 -131.11694336 48.08789062 C-127.46499645 43.90122949 -123.64398563 39.91422738 -119.73828125 35.96484375 C-119.02909546 35.24758621 -118.31990967 34.53032867 -117.5892334 33.79133606 C-116.09481365 32.28317887 -114.59890153 30.77649912 -113.1015625 29.27124023 C-111.59832738 27.75652387 -110.09955638 26.23736307 -108.60546875 24.71362305 C-96.93762219 12.81515098 -84.93029495 1.90475287 -70.20703125 -6.140625 C-69.54437256 -6.50341553 -68.88171387 -6.86620605 -68.19897461 -7.23999023 C-44.58293405 -19.77760025 -21.51130906 -14.22318676 0 0 Z " fill="#FBFAFA" transform="translate(297.33203125,238.203125)"/>
<path d="M0 0 C4.57334264 3.04074297 8.83966247 6.86919837 11 12 C11.1875 14.8125 11.1875 14.8125 11 17 C11.66 17 12.32 17 13 17 C13.63686228 30.52978541 13.62152834 41.5821094 4.5 52.5 C3.35441632 53.68737536 2.18995182 54.85709279 1 56 C0.21625 56.763125 -0.5675 57.52625 -1.375 58.3125 C-8.60452947 62.96005466 -16.52310326 64.16197671 -25 63 C-33.88522664 60.15217095 -40.10953395 54.39783038 -44.9375 46.5625 C-48.53186795 39.5279779 -47.25783806 33.19551136 -45.1171875 25.88671875 C-42.65048845 19.5129754 -39.0065226 12.60618876 -33 9 C-30.80859375 8.48046875 -30.80859375 8.48046875 -28.4375 8.1875 C-22.21555442 7.10902943 -17.38256958 4.16419426 -12 1 C-7.89024976 -1.33193693 -4.48426951 -1.53259844 0 0 Z " fill="#FD8D96" transform="translate(431,214)"/>
<path d="M0 0 C6.1258601 2.81011678 11.09916641 6.74552745 16.203125 11.10546875 C18.55994245 13.18193879 18.55994245 13.18193879 20.90625 14.77734375 C22.6484375 16.19140625 22.6484375 16.19140625 23.6484375 19.19140625 C24.51199645 28.66554131 25.17800656 39.06070035 19.6484375 47.19140625 C19.22433594 47.88234375 18.80023438 48.57328125 18.36328125 49.28515625 C14.57393586 54.94278614 9.3022655 59.62410467 2.7578125 61.828125 C-6.59074956 63.43815513 -14.49719677 62.6343439 -22.3515625 57.19140625 C-28.46109634 52.61493388 -30.2485751 48.64465975 -31.3515625 41.19140625 C-31.64373599 37.97618768 -31.72135719 34.7937006 -31.7265625 31.56640625 C-31.75105469 30.75945312 -31.77554688 29.9525 -31.80078125 29.12109375 C-31.82911432 23.30337078 -30.7074713 19.96384901 -27.3515625 15.19140625 C-25.89890835 13.95980817 -24.44337985 12.72874761 -22.92578125 11.578125 C-21.04575044 9.92201845 -19.73624896 8.1088365 -18.2890625 6.06640625 C-13.46154961 -0.54491631 -7.93288177 -2.72775171 0 0 Z " fill="#FD8D96" transform="translate(101.3515625,213.80859375)"/>
<path d="M0 0 C1.074805 3.4493742 1.03716147 6.52852093 0.9375 10.125 C0.89709494 22.20611334 3.86086094 34.34684196 12.35546875 43.515625 C25.95407258 55.78989924 42.24402147 64.64352978 60.875 64.4375 C61.83809082 64.42992676 62.80118164 64.42235352 63.79345703 64.41455078 C75.95409705 64.13346293 84.77514926 60.82152169 93.609375 52.48046875 C98.37065179 47.43695132 101.16573297 41.26612047 104 35 C104.36351562 34.20464844 104.72703125 33.40929687 105.1015625 32.58984375 C106.23854511 29.3123678 106.67526916 26.12472855 107.125 22.6875 C107.29257813 21.43324219 107.46015625 20.17898437 107.6328125 18.88671875 C107.81457031 17.45779297 107.81457031 17.45779297 108 16 C108.33 16 108.66 16 109 16 C109.41393352 36.69667577 107.4357669 55.92999534 93 72 C88.29609848 76.37444538 82.90261844 79.51759038 77 82 C75.98099609 82.45052734 75.98099609 82.45052734 74.94140625 82.91015625 C64.35420997 86.8551254 49.88298224 86.90655472 39.53515625 82.31640625 C38.69855469 81.88199219 37.86195312 81.44757813 37 81 C36.02933594 80.51402344 35.05867188 80.02804687 34.05859375 79.52734375 C16.32582462 69.94757192 5.41391795 54.80543289 -1 36 C-2.01037082 32.00954554 -2.57841399 28.09094577 -3 24 C-3.15597656 22.84242188 -3.31195313 21.68484375 -3.47265625 20.4921875 C-4.34951415 12.60897961 -3.77176062 7.0255112 0 0 Z " fill="#D3A287" transform="translate(41,220)"/>
<path d="M0 0 C3.26221534 3.26221534 2.32697038 7.22997559 2.38037109 11.67602539 C2.3777124 13.63076782 2.3777124 13.63076782 2.375 15.625 C2.37445618 16.2848288 2.37391235 16.94465759 2.37335205 17.6244812 C2.30726841 34.96720849 -0.60210984 52.08212132 -13.03515625 65.1953125 C-25.16541306 76.33682075 -39.98909102 81.59393809 -56.3125 81.3125 C-71.44183293 80.03035314 -84.75798541 73.07065655 -95 62 C-107.30936016 46.46391436 -116.34093056 27.11490284 -116 7 C-113.81024227 10.28463659 -113.00193437 13.20696275 -112 17 C-111.34 17 -110.68 17 -110 17 C-109.64808594 18.02738281 -109.29617187 19.05476563 -108.93359375 20.11328125 C-103.13485748 36.59788962 -96.35049469 47.07693486 -80.21875 54.94433594 C-70.91636665 59.34174235 -62.97908482 61.34589255 -52.6875 61.3125 C-51.70587891 61.32861328 -50.72425781 61.34472656 -49.71289062 61.36132812 C-36.2816955 61.37021707 -24.64895011 56.434529 -15 47 C-5.56541011 35.90302242 -1.17123582 22.53744816 -0.4375 8.1875 C-0.37272461 7.00510742 -0.37272461 7.00510742 -0.30664062 5.79882812 C-0.20121679 3.86605785 -0.10016906 1.93304974 0 0 Z " fill="#D2A187" transform="translate(248,134)"/>
<path d="M0 0 C0.33 0 0.66 0 1 0 C1.04898438 0.92683594 1.09796875 1.85367188 1.1484375 2.80859375 C1.26058594 4.60490234 1.26058594 4.60490234 1.375 6.4375 C1.47941406 8.22994141 1.47941406 8.22994141 1.5859375 10.05859375 C1.79089844 11.51458984 1.79089844 11.51458984 2 13 C2.99 13.495 2.99 13.495 4 14 C0.73632878 34.5697173 -4.79566814 53.32088269 -21.6875 66.75 C-33.68605979 75.31391531 -47.02906382 80.6042188 -61.8125 80.5 C-62.77446289 80.49355469 -63.73642578 80.48710937 -64.72753906 80.48046875 C-77.70768979 80.14842854 -86.31671787 75.57005809 -96 67 C-97.5778125 65.8553125 -97.5778125 65.8553125 -99.1875 64.6875 C-107.74327884 56.511978 -112.39860197 45.41957242 -113.23828125 33.6640625 C-113.24819382 31.09340324 -113.1883022 28.56300212 -113 26 C-111.31488206 28.5276769 -110.21518683 30.74795925 -109 33.5 C-102.78439983 45.89506313 -92.32526164 54.15441897 -79.65625 59.37890625 C-64.92460693 64.22750896 -51.1249109 63.19367387 -37.171875 56.6796875 C-23.01896494 49.44509939 -8.39540177 37.54844113 -3.00390625 22.15625 C-0.99654691 14.85676148 -0.35280758 7.54278272 0 0 Z " fill="#D3A287" transform="translate(378,134)"/>
<path d="M0 0 C0.33 0 0.66 0 1 0 C2.81460664 15.4785307 4.50515073 32.4602137 -2 47 C-2.474375 48.14339844 -2.94875 49.28679687 -3.4375 50.46484375 C-7.54784737 59.56491568 -12.91096571 66.09056867 -20 73 C-20.60714844 73.61617188 -21.21429688 74.23234375 -21.83984375 74.8671875 C-31.46028004 83.94662126 -45.23186348 88.59469915 -58.25 88.5 C-59.1687793 88.49427979 -60.08755859 88.48855957 -61.03417969 88.48266602 C-72.93066323 88.17218661 -82.27026235 84.18312424 -91 76 C-91.77214844 75.29230469 -92.54429687 74.58460938 -93.33984375 73.85546875 C-102.09043209 65.07576032 -106.94136703 53.45950656 -107 41 C-104.32144106 43.56887657 -102.12338994 46.15171595 -100 49.1875 C-91.58829524 60.09755297 -79.19512586 66.72581009 -66 70 C-50.69617335 71.91690642 -38.64631298 67.39282079 -26.5 58.0625 C-24.97740777 56.73378624 -23.47664291 55.37959888 -22 54 C-21.22269531 53.30132812 -20.44539063 52.60265625 -19.64453125 51.8828125 C-10.05139292 42.85208596 -2.26007953 31.0673569 -1.71875 17.55859375 C-1.68136719 16.72779297 -1.64398438 15.89699219 -1.60546875 15.04101562 C-1.53499827 13.30143868 -1.46468647 11.56185531 -1.39453125 9.82226562 C-1.35714844 8.99275391 -1.31976563 8.16324219 -1.28125 7.30859375 C-1.25095703 6.55376709 -1.22066406 5.79894043 -1.18945312 5.02124023 C-1 3 -1 3 0 0 Z " fill="#D3A287" transform="translate(472,216)"/>
<path d="M0 0 C7.76437392 6.45398273 13.33948355 15.11387014 16.9375 24.5 C17.125 27.4375 17.125 27.4375 16.9375 29.5 C14.84899677 26.94427009 12.85193063 24.37715288 10.96484375 21.66796875 C2.78834766 10.00690984 -6.64207022 3.17554094 -20.546875 -0.08203125 C-38.0018154 -2.98215334 -54.61940169 2.80346823 -68.875 12.5625 C-79.45431912 21.43103703 -86.7989049 36.7990415 -88.40527344 50.40283203 C-88.90906213 56.76291139 -89.07496011 63.12131358 -89.0625 69.5 C-91.91485741 68.07382129 -92.0673371 66.48548869 -93.0625 63.5 C-96.55644606 46.46701298 -94.17771605 30.87837326 -84.93115234 16.22509766 C-75.52902776 2.25118486 -62.12906083 -6.63745131 -45.8125 -10.5 C-28.86918978 -13.45835575 -13.90912579 -10.18002273 0 0 Z " fill="#FAF9F8" transform="translate(454.0625,185.5)"/>
<path d="M0 0 C18.66967403 -1.04944557 33.49273554 3.04464292 47.96826172 15.39013672 C59.57539849 26.26955332 67.44527044 41.51830422 67.99560547 57.57373047 C68.16267278 68.99440355 68.16267278 68.99440355 66.78076172 73.14013672 C66.12076172 73.14013672 65.46076172 73.14013672 64.78076172 73.14013672 C64.63380859 71.95419922 64.48685547 70.76826172 64.33544922 69.54638672 C62.36465326 54.87439765 59.13125803 41.01378283 49.78076172 29.14013672 C49.35537109 28.54201172 48.92998047 27.94388672 48.49169922 27.32763672 C41.39166396 18.02700574 30.19677264 11.99480651 18.78076172 10.14013672 C0.3236941 8.38110174 -16.14124483 11.08014176 -31.09814453 22.58544922 C-37.06219084 27.89571864 -40.49488519 35.20000816 -44.21923828 42.14013672 C-45.17427809 43.91274848 -46.13204444 45.68389805 -47.09423828 47.45263672 C-47.46291016 48.15001953 -47.83158203 48.84740234 -48.21142578 49.56591797 C-49.21923828 51.14013672 -49.21923828 51.14013672 -51.21923828 52.14013672 C-50.93228461 39.12287459 -46.41401202 28.18478554 -38.21923828 18.14013672 C-37.67009766 17.44275391 -37.12095703 16.74537109 -36.55517578 16.02685547 C-29.07782325 7.54483663 -16.80103962 1.55833523 -5.59814453 0.32373047 C-3.73173193 0.22231845 -1.8654502 0.1177963 0 0 Z " fill="#FAF9F9" transform="translate(315.21923828125,73.85986328125)"/>
<path d="M0 0 C1.40572266 0.00193359 1.40572266 0.00193359 2.83984375 0.00390625 C17.27223268 0.18557268 30.61915655 5.41588008 41.875 14.375 C42.865 15.14714844 43.855 15.91929688 44.875 16.71484375 C56.28531524 26.31304958 62.28912594 42.11164704 64.875 56.375 C65.06226486 58.78094634 65.03950469 60.96226454 64.875 63.375 C62.98229434 60.53594151 61.7998224 57.7904864 60.56689453 54.62524414 C53.45104625 36.41681172 42.41650806 20.6085195 24.25 12 C11.77079567 7.01713749 -1.44031473 6.86299786 -14.125 11.375 C-28.23169303 17.51916345 -38.2976281 27.981102 -44.28515625 42.11328125 C-45.05036504 44.52426572 -45.62444767 46.8964586 -46.125 49.375 C-46.42664063 50.59316406 -46.42664063 50.59316406 -46.734375 51.8359375 C-48.6123824 60.28697078 -48.30654621 68.77172695 -48.125 77.375 C-53.03014524 73.1843297 -53.81043079 66.56263464 -54.41796875 60.40625 C-54.85836058 44.46826014 -48.49098025 28.61075723 -37.8125 16.8125 C-27.47083847 5.96623578 -15.00673514 -0.39546181 0 0 Z " fill="#F9F8F8" transform="translate(185.125,72.625)"/>
<path d="M0 0 C0.99 0.86625 1.98 1.7325 3 2.625 C5.50558816 4.784817 8.05218178 6.77561643 10.75 8.6875 C14.28876476 11.28532153 17.25793172 14.22484068 20.3125 17.375 C24.58379138 21.77391373 29.08369691 25.39477477 34.1015625 28.91015625 C42.28178987 34.80829863 49.62471373 41.00145027 55.58984375 49.1796875 C57.47081167 51.60775136 59.10041993 52.9591251 62 54 C66.96072543 53.66610502 69.35534957 52.32225479 72.9375 48.9375 C73.80890625 48.12023437 74.6803125 47.30296875 75.578125 46.4609375 C77.60637356 44.39997525 79.39641569 42.32443637 81.1875 40.0625 C85.27288155 35.2343218 90.5109663 32.12021469 95.77734375 28.7421875 C100.4281705 25.75638983 104.93338732 22.57636427 109.4375 19.375 C110.18950684 18.84165039 110.94151367 18.30830078 111.71630859 17.75878906 C113.47876713 16.50758746 115.23957464 15.25406066 117 14 C117.99 14.495 117.99 14.495 119 15 C118.55720703 15.4125 118.11441406 15.825 117.65820312 16.25 C107.01378598 26.15615198 107.01378598 26.15615198 96.6640625 36.3671875 C94.40520098 38.58362909 92.00441643 40.60647763 89.58203125 42.640625 C86.72713096 45.0937245 84.11972292 47.79531166 81.55859375 50.55078125 C77.92506765 54.35941704 74.01575288 57.75428824 69.875 61 C68.88242187 61.78375 67.88984375 62.5675 66.8671875 63.375 C64 65 64 65 61.52734375 65.1328125 C57.79975767 63.46202431 55.45271358 60.82882493 52.6875 57.875 C51.53178337 56.67921291 50.3742406 55.48518796 49.21484375 54.29296875 C48.66038574 53.71981934 48.10592773 53.14666992 47.53466797 52.55615234 C44.52721446 49.5065964 41.26801351 46.76265059 38 44 C32.92611989 39.66107984 28.30369534 35.30376065 24.01171875 30.19140625 C21.51278182 27.4692633 18.76671133 25.06649096 16 22.625 C10.75386778 17.95464298 6.68370084 13.012949 3 7 C2.44441406 6.12085938 1.88882813 5.24171875 1.31640625 4.3359375 C0 2 0 2 0 0 Z " fill="#C75B69" transform="translate(193,339)"/>
<path d="M0 0 C3.92556503 3.47692903 6.76926207 6.84631036 7.8125 12.0625 C6.95326547 16.01497885 5.28138241 17.3816841 2.1875 19.9375 C1.218125 20.55625 0.24875 21.175 -0.75 21.8125 C-3.9791303 24.05312102 -6.08726512 26.4007132 -8.515625 29.44921875 C-10.55958964 31.79485287 -11.87777225 31.94645894 -15 32.375 C-20.03040545 31.79774036 -22.45683481 29.59650216 -25.8125 25.9375 C-27.90656935 21.7493613 -27.23148491 16.49845004 -26.8125 11.9375 C-24.45673557 6.84904883 -20.3534789 3.17202557 -15.8125 -0.0625 C-10.67126824 -1.77624392 -5.09499649 -1.92477645 0 0 Z " fill="#FEF8F9" transform="translate(225.8125,300.0625)"/>
<path d="M0 0 C7.10122534 3.96748622 11.02907396 11.68018552 14 19 C13.505 20.485 13.505 20.485 13 22 C12.39414063 21.41992188 11.78828125 20.83984375 11.1640625 20.2421875 C3.52502058 13.12024996 -4.84791413 5.46195813 -15.8828125 5.6640625 C-21.46086594 6.54914109 -24.90728944 10.66594088 -28.125 15 C-28.60710937 15.68578125 -29.08921875 16.3715625 -29.5859375 17.078125 C-31.47247652 19.64215041 -33.75280774 21.75280774 -36 24 C-38.00987323 27.20918746 -38.23702916 29.66737565 -38.1953125 33.421875 C-38.18886719 34.44667969 -38.18242188 35.47148437 -38.17578125 36.52734375 C-38.15902344 37.59082031 -38.14226562 38.65429688 -38.125 39.75 C-38.11597656 40.82894531 -38.10695313 41.90789062 -38.09765625 43.01953125 C-38.07411305 45.67991278 -38.04122799 48.33984336 -38 51 C-43.66683909 45.91857817 -44.62916228 39.94070924 -45.32421875 32.5546875 C-45.63799995 22.70844979 -44.07348926 14.42939591 -37.8125 6.625 C-27.75763675 -3.95106566 -13.16357456 -5.96259475 0 0 Z " fill="#FEFCFC" transform="translate(109,208)"/>
<path d="M0 0 C0.61230469 0.41636719 1.22460938 0.83273438 1.85546875 1.26171875 C8.55196477 6.36454066 14.73026683 15.22796408 18 23 C18.125 25.75 18.125 25.75 18 28 C15.64197504 25.09781544 13.3829299 22.15033771 11.1875 19.125 C2.23247713 7.24452078 -9.40666177 0.17441179 -24 -3 C-41.18881128 -4.32333951 -54.20805559 -2.55424067 -67.83203125 8.484375 C-78.02553938 17.78048626 -83.38285579 31.30285343 -88 44 C-88.33 44 -88.66 44 -89 44 C-90.04705883 31.11535937 -85.49120733 19.37129302 -78 9 C-58.48315888 -13.3549475 -23.94043453 -16.79657485 0 0 Z " fill="#F6F5F4" transform="translate(126,186)"/>
<path d="M0 0 C0.66 0 1.32 0 2 0 C2.63475381 11.91926607 1.58608445 22.6660701 -6.22265625 32.18359375 C-11.4628441 37.53895056 -17.22559105 42.70613803 -24.86328125 43.30078125 C-26.34628791 43.3153335 -27.82943579 43.31890909 -29.3125 43.3125 C-30.04662109 43.32861328 -30.78074219 43.34472656 -31.53710938 43.36132812 C-40.75399745 43.36950638 -47.35822561 39.0610728 -54 33 C-59.05437208 27.41935924 -63.14667108 21.30638521 -63.1875 13.5625 C-63.125625 12.386875 -63.06375 11.21125 -63 10 C-61 13 -61 13 -59.5 16.0625 C-55.62698589 22.91700422 -49.04463701 29.47208162 -42 33 C-37.33625548 33.91462127 -33.87999591 33.53489948 -29.8125 31.0625 C-29.26335937 30.68480469 -28.71421875 30.30710938 -28.1484375 29.91796875 C-25.06897472 28.60219829 -22.26879192 28.86452424 -18.9375 28.875 C-13.929664 28.74128959 -13.929664 28.74128959 -9.9375 26.07421875 C-8.3688371 23.44752541 -7.17201882 20.82456536 -6 18 C-5.06651659 16.28946858 -4.1291373 14.58105634 -3.1875 12.875 C-1.03324759 8.51125793 -0.26903044 4.84254784 0 0 Z " fill="#CB5F6D" transform="translate(224,134)"/>
<path d="M0 0 C0.66 0 1.32 0 2 0 C5.58305176 11.86706744 2.53173518 26.19502194 -3 37 C-8.15130686 45.11363599 -14.56070278 51.47527231 -24 54 C-33.15358905 54.90113053 -41.56218799 55.0980819 -49 49 C-57.13879229 42.1707079 -61.90033479 34.6460342 -63 24 C-63.13241341 20.657703 -63.12799392 17.34206347 -63 14 C-61.13727785 16.79408323 -60.28383541 18.91111575 -59.25 22.0625 C-55.66102888 32.00118926 -51.60492877 39.04202725 -42 44 C-34.37381889 46.54206037 -25.58146321 45.77409262 -18.3515625 42.37109375 C-11.36354762 38.2966864 -7.0511164 34.4232219 -4.5625 26.5625 C-4.01063229 24.38262256 -3.48722729 22.19522964 -3 20 C-2.78859375 19.19175781 -2.5771875 18.38351563 -2.359375 17.55078125 C-0.90690106 11.77200993 -0.42133532 5.93195773 0 0 Z " fill="#CB5F6D" transform="translate(350,123)"/>
<path d="M0 0 C2.625 0.5625 2.625 0.5625 4.875 3.375 C8.65436357 10.2588408 8.70829004 17.37993173 6.75390625 24.92578125 C4.16141094 32.15926816 0.79125356 37.89735929 -4.375 43.5625 C-5.24511719 44.53509766 -5.24511719 44.53509766 -6.1328125 45.52734375 C-9.84090621 49.45991847 -13.43500382 52.3255206 -18.375 54.5625 C-20.8125 54.3125 -20.8125 54.3125 -22.375 53.5625 C-21.93123116 47.77871274 -20.36012124 44.20118985 -17.125 39.4375 C-16.74214844 38.84324219 -16.35929687 38.24898438 -15.96484375 37.63671875 C-13.45134274 33.82863862 -10.61454479 30.79117383 -7.375 27.5625 C-5.58140258 24.60446673 -5.11180796 22.34098807 -5.03125 18.90234375 C-4.98677734 17.5884668 -4.98677734 17.5884668 -4.94140625 16.24804688 C-4.89704108 14.41211165 -4.85277064 12.57617414 -4.80859375 10.74023438 C-4.77894531 9.86560547 -4.74929688 8.99097656 -4.71875 8.08984375 C-4.70005859 7.29312256 -4.68136719 6.49640137 -4.66210938 5.67553711 C-4.2132528 2.37209014 -3.29023703 0.77926666 0 0 Z " fill="#FEFBFB" transform="translate(302.375,310.4375)"/>
<path d="M0 0 C4.57393112 3.80558301 7.13738636 8.41215908 9 14 C9.1875 16.9375 9.1875 16.9375 9 19 C8.34 19 7.68 19 7 19 C6.62875 17.989375 6.2575 16.97875 5.875 15.9375 C3.64481297 10.76178294 0.38905003 6.47018464 -4.4375 3.5 C-11.44843167 2.13201333 -15.93363032 4.96310784 -21.65625 8.57421875 C-25.00050694 10.60864172 -28.20909998 11.82817933 -32.1171875 12.203125 C-35.95088453 12.69363169 -38.24429908 13.24138694 -41.02734375 16.03515625 C-44.45537585 20.72424033 -46.85517924 25.39266542 -48.39453125 30.9921875 C-49.04356142 33.14445528 -49.94686069 35.0181429 -51 37 C-51.88194337 24.65279282 -51.43311989 15.32768075 -44 5 C-41.54192979 2.475878 -39.0879136 0.67629595 -36 -1 C-34.948125 -1.598125 -33.89625 -2.19625 -32.8125 -2.8125 C-22.028713 -7.36565451 -9.90934914 -5.90692434 0 0 Z " fill="#FEFCFC" transform="translate(435,211)"/>
<path d="M0 0 C6.98049837 4.73603134 12.09744892 10.87354622 14.62109375 19 C15.25447569 22.34321188 15.05660276 25.60383442 15 29 C12.79355571 26.18532767 11.03319049 23.31826923 9.3125 20.1875 C4.50484099 12.18651846 -1.21371237 7.52222123 -10.1328125 4.65625 C-18.88979375 2.65192732 -26.43687748 3.66835387 -34.09375 8.25390625 C-42.61852589 14.09083302 -45.39518586 20.92494156 -47.44140625 30.85546875 C-48.10106909 34.56895538 -48.6320265 38.24667032 -49 42 C-51.77740541 39.22259459 -51.29964728 37.50652015 -51.3125 33.625 C-51.09848601 21.99690651 -48.85050264 12.8259158 -41 4 C-29.12371328 -7.4409035 -14.14781001 -7.37835155 0 0 Z " fill="#FEFBFA" transform="translate(210,99)"/>
<path d="M0 0 C0.33 0 0.66 0 1 0 C1.63686228 13.52978541 1.62152834 24.5821094 -7.5 35.5 C-8.64558368 36.68737536 -9.81004818 37.85709279 -11 39 C-11.78375 39.763125 -12.5675 40.52625 -13.375 41.3125 C-20.60452947 45.96005466 -28.52310326 47.16197671 -37 46 C-46.77442939 42.86717007 -53.43559031 36.17193906 -58.1328125 27.22265625 C-59.4101727 23.9487015 -59.36934595 21.4718519 -59 18 C-58.34 18 -57.68 18 -57 18 C-56.649375 19.258125 -56.29875 20.51625 -55.9375 21.8125 C-52.72817548 29.23406296 -44.77134979 33.98616373 -38 38 C-31.37342113 40.20885962 -26.1455256 39.19942684 -20.03515625 36.19140625 C-10.21332248 30.44158034 -4.21564086 16.62348467 -1.17578125 6.1640625 C-0.72167962 4.12221547 -0.34954582 2.06232036 0 0 Z " fill="#CB5F6D" transform="translate(443,231)"/>
<path d="M0 0 C3.92542512 3.01648445 6.50931645 6.7971778 9.22265625 10.8671875 C8.89265625 11.5271875 8.56265625 12.1871875 8.22265625 12.8671875 C7.79855469 12.46886719 7.37445313 12.07054688 6.9375 11.66015625 C-0.90062006 4.58000824 -6.57124026 3.3302509 -17.12109375 3.58984375 C-25.82268349 4.24990024 -32.76931116 7.40571848 -38.77734375 13.8671875 C-40.58172279 16.85844697 -42.06307453 19.87020034 -43.49609375 23.0546875 C-44.55300581 25.37473837 -45.63504591 27.35140487 -47.08984375 29.4296875 C-48.92109375 31.83177083 -48.92109375 31.83177083 -49.77734375 34.8671875 C-50.43734375 34.8671875 -51.09734375 34.8671875 -51.77734375 34.8671875 C-52.5754037 24.64758645 -50.08039228 15.77367389 -43.53515625 7.78125 C-31.46555475 -5.36120496 -16.08523144 -10.25212553 0 0 Z " fill="#FEFBFB" transform="translate(337.77734375,101.1328125)"/>
<path d="M0 0 C2.76780236 2.76780236 2.31148963 4.6925382 2.38037109 8.4753418 C2.34896047 23.60526684 2.34896047 23.60526684 -2 30 C-2.42410156 30.6909375 -2.84820312 31.381875 -3.28515625 32.09375 C-7.07450164 37.75137989 -12.346172 42.43269842 -18.890625 44.63671875 C-28.2200217 46.24344818 -36.15560712 45.44160587 -44 40 C-46.30681961 38.10924004 -48.05986244 36.29753132 -50 34 C-50 33.34 -50 32.68 -50 32 C-40.78346425 34.36229654 -40.78346425 34.36229654 -37.3125 37.1875 C-34.07342288 39.72623612 -32.0681299 39.26540297 -28 39 C-25.36578261 38.36181331 -22.92454854 37.68048655 -20.375 36.8125 C-19.73304687 36.61591797 -19.09109375 36.41933594 -18.4296875 36.21679688 C-11.50456767 33.91078873 -7.5197502 29.21822535 -4 23 C-0.94664269 15.53623768 -0.36330671 7.99274769 0 0 Z " fill="#CB5F6D" transform="translate(123,231)"/>
<path d="M0 0 C0.66 0.33 1.32 0.66 2 1 C-1.63 4.3 -5.26 7.6 -9 11 C-9 8 -9 8 -6.75 5.5 C-4.56458892 3.51326265 -2.41145588 1.69695043 0 0 Z " fill="#BD5765" transform="translate(310,353)"/>
<path d="M0 0 C-0.33 3.63 -0.66 7.26 -1 11 C-1.33 11 -1.66 11 -2 11 C-2.33 7.7 -2.66 4.4 -3 1 C-1 0 -1 0 0 0 Z " fill="#E0C6B5" transform="translate(472,213)"/>
</svg>
